<svg xmlns="http://www.w3.org/2000/svg" width="2385.448" height="1894.484" viewBox="0 0 2385.448 1894.484">
  <g id="Group_409" data-name="Group 409" transform="translate(-312.348 -117.459)">
    <g id="Group_233" data-name="Group 233" transform="translate(312.348 117.459)">
      <g id="Group_232" data-name="Group 232" transform="translate(427.021 424.679)">
        <g id="Group_231" data-name="Group 231">
          <path id="Path_1016" data-name="Path 1016" d="M2215.414,929.113l-.022.108a683.784,683.784,0,0,1-93.558,237.484,692.73,692.73,0,0,1-585.823,322.465H1069.017a692.058,692.058,0,0,1-500.949-214.565q-8.443-8.832-16.578-18.008a699.51,699.51,0,0,1-153-283.789,686.925,686.925,0,0,1-19.669-106.851c-.086-.87-.173-1.718-.259-2.588-6.672-65.816-8.541-129.173-5.169-189.008,7.52-133.17,41.085-248.828,106.031-335.068,75.564-100.359,193.637-160.848,362.566-162.717,7.016-.065,14.083-.065,21.229.043,465.471,7.024,449.978,219.281,831.214,312.422,87.125,21.294,194.982,36.377,334.062,41.33,3.127.108,6.211.259,9.252.474C2233.034,543.34,2254.027,726.331,2215.414,929.113Z" transform="translate(-371.747 -176.532)" fill="#8ed0c2" opacity="0.6"/>
          <path id="Path_1017" data-name="Path 1017" d="M2036.33,401.677c-131.9,68.878-337.973,142.6-586.168,115.722C1073.47,476.616,599.286,397.7,371.975,545.192c7.52-133.17,41.086-248.828,106.031-335.068,79.561-18.461,180.748-19.224,308.533,13.781,276.894,71.5,636.419,149.612,906.477,135.967,87.125,21.294,194.982,36.377,334.062,41.33C2030.2,401.311,2033.289,401.462,2036.33,401.677Z" transform="translate(-370.333 -47.363)" fill="#fff" opacity="0.5" style="mix-blend-mode: screen;isolation: isolate"/>
          <path id="Path_1018" data-name="Path 1018" d="M2192.373,335.02A683.786,683.786,0,0,1,2098.814,572.5c-95.363,28.706-222.229,39.266-386.556,3.372C1310.77,488.161,870.419,489.743,545.049,680.4q-8.443-8.832-16.578-18.008a699.512,699.512,0,0,1-153-283.789c113.695-53.86,398.461-158.483,765.527-74.694C1528.1,392.252,1971.856,462.475,2192.373,335.02Z" transform="translate(-348.727 417.669)" fill="#fff" opacity="0.5" style="mix-blend-mode: screen;isolation: isolate"/>
        </g>
      </g>
      <path id="Path_1019" data-name="Path 1019" d="M312.348,303.419a33.138,33.138,0,0,0,32.962,33h705.4a33.078,33.078,0,0,0,32.962-33,33.15,33.15,0,0,0-32.962-33h-33.336a86,86,0,0,0-139.949-26.643A119.425,119.425,0,0,0,739.8,190,136.528,136.528,0,0,0,487.617,217.56a86.011,86.011,0,0,0-121.071,52.861H345.31A33.083,33.083,0,0,0,312.348,303.419Z" transform="translate(-312.348 -117.459)" fill="#8ed0c2" opacity="0.6"/>
      <path id="Path_1020" data-name="Path 1020" d="M951.493,268.5a21.49,21.49,0,0,1-21.373,21.395H472.737a21.361,21.361,0,0,1-15.083-36.5,21.173,21.173,0,0,1,15.083-6.3h21.618a55.758,55.758,0,0,1,90.74-17.268,77.46,77.46,0,0,1,89.238-34.874,88.522,88.522,0,0,1,163.515,17.872,55.753,55.753,0,0,1,78.5,34.27H930.12A21.453,21.453,0,0,1,951.493,268.5Z" transform="translate(548.032 71.041)" fill="#8ed0c2" opacity="0.6"/>
      <path id="Path_1021" data-name="Path 1021" d="M751.021,311.49l5.823-29.676-27.807-5.456a67.94,67.94,0,0,0-3.673-21.718l22.9-15.385L731.4,214.15l-21.919,14.73a67.747,67.747,0,0,0-22.509-15.14l5.457-27.807-29.67-5.823-5.622,28.656a67.546,67.546,0,0,0-18.059,3.523L623.7,189.369l-25.1,16.866,14.731,21.927a67.683,67.683,0,0,0-15.14,22.509L573.875,245.9l-5.824,29.669,25.155,4.939a67.5,67.5,0,0,0,5.348,22.9l-21.934,14.73,16.865,25.1L616.4,327.838a67.6,67.6,0,0,0,22.107,12.847L633,368.658l29.677,5.816,5.953-30.316a67.464,67.464,0,0,0,19.209-5.068l14.73,21.927,25.1-16.866-15.392-22.9a67.716,67.716,0,0,0,10.086-15.385ZM676.5,299.607a27.715,27.715,0,1,1,7.549-38.461A27.752,27.752,0,0,1,676.5,299.607Z" transform="translate(1270.221 270.292)" fill="#8ed0c2"/>
      <path id="Path_1022" data-name="Path 1022" d="M532.174,316.454,538,286.785l-27.807-5.457a67.9,67.9,0,0,0-3.674-21.718l22.9-15.392-16.866-25.1-21.919,14.73a67.854,67.854,0,0,0-22.509-15.14l5.457-27.807-29.669-5.816-5.622,28.656a67.241,67.241,0,0,0-18.059,3.515l-15.385-22.911-25.1,16.865,14.73,21.92a67.674,67.674,0,0,0-15.14,22.509l-24.306-4.773L349.2,280.53l25.155,4.939a67.44,67.44,0,0,0,5.349,22.9L357.775,323.1l16.865,25.1,22.911-15.384a67.579,67.579,0,0,0,22.107,12.84l-5.5,27.973,29.677,5.823,5.953-30.323A67.237,67.237,0,0,0,469,344.053l14.73,21.927,25.1-16.858L493.432,326.21a67.717,67.717,0,0,0,10.086-15.385Zm-74.522-11.884a27.715,27.715,0,1,1,7.548-38.461A27.739,27.739,0,0,1,457.652,304.571Z" transform="translate(-84.238 301.058)" fill="#8ed0c2"/>
      <path id="Path_1023" data-name="Path 1023" d="M701.778,265.1l3.177-16.211-15.19-2.983a37.122,37.122,0,0,0-2.013-11.869l12.516-8.411-9.216-13.717-11.977,8.052a36.949,36.949,0,0,0-12.3-8.275l2.984-15.2L653.539,193.3l-3.07,15.665a36.989,36.989,0,0,0-9.871,1.919l-8.411-12.523-13.717,9.216,8.052,11.984a36.99,36.99,0,0,0-8.275,12.3l-13.278-2.61-3.192,16.219,13.752,2.7a36.871,36.871,0,0,0,2.919,12.509l-11.984,8.052,9.217,13.717,12.523-8.411a36.945,36.945,0,0,0,12.078,7.024l-3.005,15.284,16.219,3.185,3.256-16.578a36.637,36.637,0,0,0,10.5-2.768l8.052,11.984,13.717-9.216-8.412-12.516a36.854,36.854,0,0,0,5.507-8.411Zm-40.734-6.492a15.146,15.146,0,1,1,4.127-21.021A15.157,15.157,0,0,1,661.044,258.605Z" transform="translate(1478.954 351.926)" fill="#8ed0c2"/>
      <path id="Path_1024" data-name="Path 1024" d="M541.676,303.775a31.652,31.652,0,0,0,31.474,31.51h673.558a31.456,31.456,0,0,0,22.208-53.753,31.14,31.14,0,0,0-22.208-9.267h-31.833a82.114,82.114,0,0,0-133.63-25.442,114.06,114.06,0,0,0-131.409-51.352,130.369,130.369,0,0,0-240.8,26.312,82.126,82.126,0,0,0-115.607,50.482H573.15A31.582,31.582,0,0,0,541.676,303.775Z" transform="translate(1106.979 -63.329)" fill="#8ed0c2" opacity="0.6"/>
    </g>
    <path id="Path_1025" data-name="Path 1025" d="M2552.464,426.547c0,34.86-496.21,63.127-1108.316,63.127S335.83,461.407,335.83,426.547,832.041,363.42,1444.147,363.42,2552.464,391.687,2552.464,426.547Z" transform="translate(145.332 1522.269)" fill="#8ed0c2" opacity="0.6"/>
    <g id="Group_240" data-name="Group 240" transform="translate(577.313 1188.407)">
      <path id="Path_1026" data-name="Path 1026" d="M626.841,816.69h19.238L574.922,631.859c3.516-16.959,10.992-40.316,26.729-67.807,29.4-51.359,51.581-111.287,13.954-107.139-32.652,3.609-55.7,72.739-54.1,140.086l-25.564-66.4c-4.407-21.9-10.748-53.135-8.706-88.361,4.738-81.618-5.816-159.77-45.284-138.461-39.511,21.337-18.807,155.478,40.5,241.754l13.156,34.17c-42.128-63.63-122.523-115.363-153.415-93.077-30.7,22.149,25.946,51.733,82.193,70.122,42.811,14,67.635,32.969,79.26,43.839l62.135,161.387C538.789,661.413,411.8,579.882,362.924,615.152,314.21,650.3,404.1,697.229,493.34,726.41c67.441,22.049,106.765,51.9,125.385,69.2Z" transform="translate(-349.205 -57.244)" fill="#eb8b51"/>
      <g id="Group_235" data-name="Group 235" transform="translate(1566.265 378.629)">
        <path id="Path_1027" data-name="Path 1027" d="M734.5,699.912a85.156,85.156,0,0,0-5.521-53.019c-20.533-45.2,5.73-60.194,39.676-83.141s28.807-68.383-5.434-99.713,6.657-71.186-22.7-123.1-81.869-1.919-84.083,52.214c-1.589,38.922-51.639,41.316-59.274,92.991-6.643,44.859,53.7,72.027-2.4,103.975-17.922,10.2-25.385,27.232-27.247,45.694a88.3,88.3,0,0,0,19.087,64.1Z" transform="translate(-567.072 -319.095)" fill="#eb8b51"/>
        <g id="Group_234" data-name="Group 234" transform="translate(79.954 86.765)">
          <path id="Path_1028" data-name="Path 1028" d="M587.6,625.216,638.187,336.6a4.631,4.631,0,1,0-9.123-1.6l-50.87,290.215Z" transform="translate(-578.194 -331.164)" fill="#7cd0be"/>
        </g>
      </g>
      <g id="Group_237" data-name="Group 237" transform="translate(1678.553 351.68)">
        <path id="Path_1029" data-name="Path 1029" d="M779.358,723.113a103.572,103.572,0,0,0,.518-12.185c-1.056-63.206,37.218-67.4,88.505-76.981s68.332-65.269,44.227-119.216c-24.112-53.968,43.875-79.777,35.924-155.291s-94.644-43.767-124.695,18.339c-21.6,44.651-81.265,22.063-116.391,78.548-30.51,49.022,26.19,111.366-55.543,120.23-26.1,2.818-43.458,18.929-55,39.555-19.052,34.062-18.34,74.126-1.539,107Z" transform="translate(-582.692 -315.347)" fill="#f1b28c"/>
        <g id="Group_236" data-name="Group 236" transform="translate(79.981 100.124)">
          <path id="Path_1030" data-name="Path 1030" d="M607.943,636.916l196.923-298.5a5.9,5.9,0,1,0-9.849-6.492l-201.2,304.989Z" transform="translate(-593.817 -329.274)" fill="#eb8b51"/>
        </g>
      </g>
      <g id="Group_239" data-name="Group 239" transform="translate(168.061)">
        <g id="Group_238" data-name="Group 238" transform="translate(58.414 43.265)">
          <path id="Path_1031" data-name="Path 1031" d="M608.577,897.246c-17.757-140.46-44.6-286.146-73.731-380.531-38.059-123.307-85.665-205.025-141.5-242.875a8.1,8.1,0,0,0-9.087,13.408c97.592,66.168,169.942,280.862,209.483,621.279Z" transform="translate(-380.707 -272.446)" fill="#eb8b51"/>
        </g>
        <path id="Path_1032" data-name="Path 1032" d="M411.772,402.516s66.405-13.07,38.864-128.922C450.636,273.594,354.662,322.429,411.772,402.516Z" transform="translate(-242.312 -222.077)" fill="#f1b28c"/>
        <path id="Path_1033" data-name="Path 1033" d="M507.511,342.84s-9.353-67.031-126.556-45.981C380.955,296.859,424.37,395.406,507.511,342.84Z" transform="translate(-320.761 -103.408)" fill="#f1b28c"/>
        <path id="Path_1034" data-name="Path 1034" d="M476.565,351.971s13.53-66.312-103.983-85.543C372.582,266.428,380.655,373.8,476.565,351.971Z" transform="translate(-372.582 -266.428)" fill="#f1b28c"/>
        <path id="Path_1035" data-name="Path 1035" d="M407.582,409.22s66.909,10.158,80.179-108.174C487.761,301.046,380.932,314.533,407.582,409.22Z" transform="translate(-182.391 -52.175)" fill="#f1b28c"/>
        <path id="Path_1036" data-name="Path 1036" d="M505.557,382.656s2.379-67.635-116.7-67.175C388.857,315.481,414.572,420.046,505.557,382.656Z" transform="translate(-271.855 37.15)" fill="#f1b28c"/>
        <path id="Path_1037" data-name="Path 1037" d="M411.118,428.418s66.707,11.431,82.221-106.635C493.339,321.783,386.272,333.249,411.118,428.418Z" transform="translate(-157.229 76.168)" fill="#f1b28c"/>
      </g>
    </g>
    <g id="Group_241" data-name="Group 241" transform="translate(744.949 1243.577)">
      <path id="Path_1038" data-name="Path 1038" d="M2210.647,299.385l-.222.42-144.3,273.814-54.9-99.946L1330.649,847.384,1220.856,647.417,608.635,983.6H372.523l893.235-490.5,109.818,199.967,580.951-319.013L1901.655,274.1Z" transform="translate(-372.523 -274.102)" fill="#ffac00"/>
      <path id="Path_1039" data-name="Path 1039" d="M2123.486,277.677l-144.3,273.814-54.9-99.946L1243.71,825.256,1133.917,625.289,521.7,961.469H386.57l763.8-419.428,109.818,199.967Z" transform="translate(-285.584 -251.974)" fill="#fa8a00"/>
    </g>
    <g id="Group_274" data-name="Group 274" transform="translate(927.67 290.656)">
      <g id="Group_244" data-name="Group 244" transform="translate(292.765 764.366)">
        <g id="Group_243" data-name="Group 243" transform="translate(0 424.349)">
          <path id="Path_1040" data-name="Path 1040" d="M486.051,306.9l-39.525,27.2s-.539,17.958,15.377,37.311l46.721-30.877Z" transform="translate(-390.013 -306.901)" fill="#fda893"/>
          <g id="Group_242" data-name="Group 242" transform="translate(0 17.454)">
            <path id="Path_1041" data-name="Path 1041" d="M516,341.989c5.874,6.894,8.447,12.236,2.545,21.5-3.868,6.068-14.047,69.123-10.884,88.16s-11.208,20.431-19.1,19.648-49.9-142.782-49.9-142.782,39.849-19.051,54.133-19.187S507.872,329.193,516,341.989Z" transform="translate(-438.663 -309.329)" fill="#f1b28c"/>
          </g>
        </g>
        <path id="Path_1042" data-name="Path 1042" d="M762.258,282.1s-4.306,231.962-28.965,277.749S472.438,715.745,472.438,715.745,455.9,696.874,450.928,670.5c0,0,66.564-58.49,92.89-84.953,39.511-39.7,97.937-74.105,97.937-74.105l-6-263.573Z" transform="translate(-362.754 -247.874)" fill="#001f37"/>
        <path id="Path_1043" data-name="Path 1043" d="M471.067,304.932s-17.225,10.518-22.056,16.139c0,0,13.364,44.392,36.233,49.712l17.1-10.848S477.961,329.785,471.067,304.932Z" transform="translate(-374.619 105.262)" fill="#043c62"/>
      </g>
      <g id="Group_247" data-name="Group 247" transform="translate(549.476 666.745)">
        <g id="Group_246" data-name="Group 246" transform="translate(526.689 418.159)">
          <path id="Path_1044" data-name="Path 1044" d="M547.634,312.943l24.752,41.114s17.893,1.617,38.181-13.084L582.58,292.461Z" transform="translate(-547.634 -292.461)" fill="#fda893"/>
          <g id="Group_245" data-name="Group 245" transform="translate(21.25 30.868)">
            <path id="Path_1045" data-name="Path 1045" d="M579.584,306.167c5.932-6.844,10.834-10.187,20.885-5.744,6.57,2.911,70.438,3.515,88.792-2.466s29.223,12.092,22.286,15.939c-37.441,20.74-133.681,70.755-133.681,70.755S553.05,348.108,550.771,334,568.147,316.117,579.584,306.167Z" transform="translate(-550.59 -296.755)" fill="#f1b28c"/>
          </g>
        </g>
        <path id="Path_1046" data-name="Path 1046" d="M605.123,234.295S865.188,334.6,899.113,374.338s147.556,285.8,147.556,285.8-19.073,34.723-46,27.829c0,0-57.973-85.4-78.491-118.246-21.452-34.349-71.747-75.456-96.1-149.489,0,0-138.893-4.968-244.853-22.222-71.236-11.6-120.69-62.76-103.386-132.832.043-.158.093-.345.158-.547a12.314,12.314,0,0,1,9.511-8.239Z" transform="translate(-474.372 -234.295)" fill="#043c62"/>
        <path id="Path_1047" data-name="Path 1047" d="M545.718,323.441s8.677,15.126,14.17,20.094c0,0,33.9-9.123,50.632-34.932l-8.756-17.333S571.836,313.268,545.718,323.441Z" transform="translate(-32.803 118.327)" fill="#005982"/>
      </g>
      <g id="Group_253" data-name="Group 253" transform="translate(785.526 193.251)">
        <g id="Group_252" data-name="Group 252" transform="translate(332.486)">
          <path id="Path_1048" data-name="Path 1048" d="M648.279,168.548c-8.239-1.833-42.229,18.742-43.7,19.087s-8.375-1.517-15.341-1.97-10.956,1.992-16.046,11.632c-5.083,9.669-9.007,26.132-9.007,26.132-3.243,1.553-6.859,3.221-10.726,4.953q8.724,15.539,18.483,30.453c5.837-3.81,11.1-7.3,15.521-10.28a17.076,17.076,0,0,0,10.087.467c8.368-2.444,15.471-5.155,19.6-6.83,2.466-1.035,3.9-1.661,3.9-1.661a.806.806,0,0,1,.13.086c.8.323,4.767,1.747,12.437-.812,8.62-2.9,14.148-9.6,14-13.9-.13-4.328-5.3-6.463-5.3-6.463s3.5-3.379,3.019-7.908c-.489-4.565-8.613-8.469-8.613-8.469s3.458-4.91-.136-9.3c-3.4-4.249-13.811.4-14.688.769C623.354,193.5,656.331,170.338,648.279,168.548Z" transform="translate(-553.455 -168.432)" fill="#fda893"/>
          <g id="Group_251" data-name="Group 251" transform="translate(29.319 26.501)">
            <g id="Group_248" data-name="Group 248">
              <path id="Path_1049" data-name="Path 1049" d="M559.58,190.42a1.923,1.923,0,0,1-1.869-2.725l3.753-8.174a1.922,1.922,0,0,1,2.7-.87c.093.05,9.187,5.119,17.067,2.6,2.408-.769,3.99-1.9,4.572-3.257a4.03,4.03,0,0,0-.086-3.091,1.938,1.938,0,0,1,.869-2.574,1.909,1.909,0,0,1,2.567.834,7.862,7.862,0,0,1,.222,6.276c-1.034,2.48-3.378,4.328-6.973,5.478-7.21,2.315-14.824-.424-18.268-1.984L561.2,189.3A1.913,1.913,0,0,1,559.58,190.42Z" transform="translate(-557.533 -172.118)" fill="#fd896b"/>
            </g>
            <g id="Group_249" data-name="Group 249" transform="translate(23.582 7.636)">
              <path id="Path_1050" data-name="Path 1050" d="M575.64,211.23l-.144-.079s-1.409.633-3.89,1.639c-3.623-3.745-4.176-8.476-4.658-12.459-.4-3.458-.762-6.456-2.739-8.526a11.937,11.937,0,0,1-3.264-6.945,17.05,17.05,0,0,1,.425-6.326c.158-.676.338-1.308.517-1.848a19.012,19.012,0,0,1,1-2.451,1.923,1.923,0,1,1,3.429,1.74c-.007.014-.079.165-.187.424a16.6,16.6,0,0,0-1.416,7.268A8.553,8.553,0,0,0,567,189.159c2.854,2.991,3.329,6.916,3.782,10.719C571.291,204.192,571.772,208.3,575.64,211.23Z" transform="translate(-560.814 -173.18)" fill="#fd896b"/>
            </g>
            <g id="Group_250" data-name="Group 250" transform="translate(8.734 10.486)">
              <path id="Path_1051" data-name="Path 1051" d="M560.8,196.267a1.925,1.925,0,0,1-1.057-3.6h0c.115-.065,11.143-6.312,11.582-17.239a1.925,1.925,0,1,1,3.846.151c-.532,13.12-13.034,20.165-13.566,20.453A1.827,1.827,0,0,1,560.8,196.267Z" transform="translate(-558.748 -173.577)" fill="#fd896b"/>
            </g>
          </g>
        </g>
        <path id="Path_1052" data-name="Path 1052" d="M863.143,215S756.2,283.5,725.394,288.823s-125.413-8.3-125.413-8.3A270.518,270.518,0,0,1,571.3,277c-28.649-5.241-45.442-14.738-55.277-27.182-16.434-20.7-6.564-50.683,2.725-74.428,0,0,14.9,11.819,89.82,27.534,0,0,106.5,20.712,112.228,21.8,0,0,80.208-26.031,124.608-45.73C845.408,178.989,855.013,209.521,863.143,215Z" transform="translate(-507.206 -125.386)" fill="#f1b28c"/>
        <path id="Path_1053" data-name="Path 1053" d="M566.641,175.385l-14.28,6.371,21.426,43.312,13.39-7.427Z" transform="translate(-227.738 -125.397)" fill="#4b9f8d"/>
        <path id="Path_1054" data-name="Path 1054" d="M569.108,266.89c-28.648-5.241-45.442-14.738-55.276-27.182-6.334-26.413-10.288-55.464.28-62.688C514.112,177.02,544.759,234.216,569.108,266.89Z" transform="translate(-505.011 -115.28)" fill="#eb8b51"/>
      </g>
      <g id="Group_261" data-name="Group 261" transform="translate(0 227.306)">
        <g id="Group_260" data-name="Group 260" transform="translate(0 304.706)">
          <g id="Group_254" data-name="Group 254" transform="translate(0 0)">
            <rect id="Rectangle_137" data-name="Rectangle 137" width="281.013" height="435.41" rx="2.44" transform="matrix(0.417, -0.909, 0.909, 0.417, 0, 255.39)" fill="#001f37"/>
            <path id="Path_1055" data-name="Path 1055" d="M801.2,529.437,856.84,408.222a17.54,17.54,0,0,0-8.62-23.257L484.389,217.957a17.522,17.522,0,0,0-23.256,8.62L405.489,347.784Z" transform="translate(-351.214 -210.636)" fill="#043c62"/>
          </g>
          <g id="Group_256" data-name="Group 256" transform="translate(258.941 18.693)">
            <g id="Group_255" data-name="Group 255">
              <path id="Path_1056" data-name="Path 1056" d="M562.527,280.592l-16.276,35.449-17.987-8.231,15.809-34.464L526.6,265.33l-.863-.4-10.611-4.874-1.315-.6-46.039-21.15-15.83,34.464-17.987-8.267,16.276-35.449a18.724,18.724,0,0,1,24.8-9.2l43.192,19.813,3.242,1.488,6.01,2.768,1.258.575,24.615,11.3A18.718,18.718,0,0,1,562.527,280.592Z" transform="translate(-433.958 -218.154)" fill="#ffac00"/>
            </g>
            <path id="Path_1057" data-name="Path 1057" d="M456.993,246.409l-10.611-4.874-1.315-.6a156.31,156.31,0,0,1,4.406-19.791l3.242,1.488,6.01,2.768A94.57,94.57,0,0,0,456.993,246.409Z" transform="translate(-365.21 -199.629)" fill="#fa8a00"/>
            <rect id="Rectangle_138" data-name="Rectangle 138" width="14.027" height="19.792" transform="matrix(0.417, -0.909, 0.909, 0.417, 0.009, 46.361)" fill="#fa8a00"/>
            <rect id="Rectangle_139" data-name="Rectangle 139" width="14.027" height="19.792" transform="matrix(0.417, -0.909, 0.909, 0.417, 94.305, 89.647)" fill="#fa8a00"/>
          </g>
          <g id="Group_259" data-name="Group 259" transform="translate(118.949 150.119)">
            <g id="Group_257" data-name="Group 257" transform="translate(0 0)">
              <path id="Rectangle_140" data-name="Rectangle 140" d="M.53,0H46.079a.53.53,0,0,1,.53.53V27.079a.53.53,0,0,1-.53.53H.533A.533.533,0,0,1,0,27.075V.53A.53.53,0,0,1,.53,0Z" transform="translate(0 42.358) rotate(-65.342)" fill="#fa8a00"/>
              <path id="Path_1058" data-name="Path 1058" d="M449.058,250.369l-8.124,17.7-25.1-11.524,8.124-17.692a3.825,3.825,0,0,1,5.068-1.9l18.16,8.339A3.823,3.823,0,0,1,449.058,250.369Z" transform="translate(-406.118 -235.368)" fill="#ffac00"/>
            </g>
            <g id="Group_258" data-name="Group 258" transform="translate(221.822 101.827)">
              <rect id="Rectangle_141" data-name="Rectangle 141" width="46.609" height="27.634" rx="0.53" transform="matrix(0.417, -0.909, 0.909, 0.417, 0, 42.359)" fill="#fa8a00"/>
              <path id="Path_1059" data-name="Path 1059" d="M479.928,264.545,471.8,282.237l-25.111-11.524,8.123-17.7a3.822,3.822,0,0,1,5.061-1.9l18.188,8.354A3.814,3.814,0,0,1,479.928,264.545Z" transform="translate(-436.97 -249.53)" fill="#ffac00"/>
            </g>
          </g>
        </g>
        <path id="Path_1060" data-name="Path 1060" d="M505.625,304.229a119.026,119.026,0,0,1-11.574-5.313,4.824,4.824,0,0,0-.733-4.04,4.96,4.96,0,0,0-8.052,0c-2.775,3.789-5.557,11.215-6.161,18.706l5.219,2.646s-4.759,5.9-8.943,4.881c-5.672-1.373-4.939-7.527-4.939-7.527s-2.9,5.14-7.225,3.357-4.378-6.988-4.378-6.988c-7.505,3.868-9.971-3.731-9.971-3.731s-7.146,2.782-8.534-3.408c-1.409-6.183,7.771-24.982,7.771-24.982,7.326-17.491,17.814-36.808,28.325-49.152,2.451-5.421,5.421-11.876,8.734-19.029,7.275,5.126,14.867,9.82,22.164,14.9q6.61,4.562,13.214,9.1c-6.629,8.785-12.171,15.96-15.737,20.539a86.271,86.271,0,0,1-.122,14.91C503.547,277.953,509.406,294.7,505.625,304.229Z" transform="translate(-136.468 52.614)" fill="#fda893"/>
        <path id="Path_1061" data-name="Path 1061" d="M660.368,325.4l95.2-38.943s39.59-68.231,15.615-113.285c0,0-97.987,45.039-148.059,73.134,0,0-74.845,40.518-99.942,68.282L445.293,446.569s23.365,26.83,39.375,25.1C513.532,432.45,553.9,376.138,561.7,357.425Z" transform="translate(-104.864 -173.169)" fill="#f1b28c"/>
        <path id="Path_1062" data-name="Path 1062" d="M454.836,209.92c-5.1,3.717-9.684,9.331-10.525,16.42l43.163,28.2a52.441,52.441,0,0,0,11.546-15.751Z" transform="translate(-110.942 54.285)" fill="#4b9f8d"/>
      </g>
      <g id="Group_264" data-name="Group 264" transform="translate(551.029 198.633)">
        <path id="Path_1063" data-name="Path 1063" d="M716.05,617.375c-5.37,29.389,0,66.326,0,66.326-38.828-15.413-96.744-44.421-152.07-20.1-44.918,19.749-88.663,8.483-88.663,8.483s-4.436-50.618,8.569-102.178c12.926-51.258,25.723-115.406,30.23-140.676,3.811-21.344,7.527-41.546,11.114-60.345q3.4-17.674,6.65-33.616h.014c12.509-60.913,18.016-113.163,27.656-121.143,27.239-22.531,90.158-44.716,90.158-44.716l42.207,11.8s45.111,34.867,44.666,60.266c-3.99,224.033-9.942,225.578-14.27,293.7C721.025,555.391,721.737,586.282,716.05,617.375Z" transform="translate(-474.587 -167.761)" fill="#f1b28c"/>
        <g id="Group_262" data-name="Group 262" transform="translate(43.236 336.073)">
          <path id="Path_1064" data-name="Path 1064" d="M484.558,289.326c-.7-.043-1.15-.079-1.323-.093a2.873,2.873,0,0,1,.432-5.73c.036,0,.129.007.733.05,6.65.46,59.655,3.566,97.347-10.453,48.2-17.929,76.937-55.643,77.225-56.024a2.873,2.873,0,1,1,4.593,3.451c-1.2,1.6-29.978,39.418-79.82,57.958C545.406,292.74,493.674,289.958,484.558,289.326Z" transform="translate(-480.602 -215.928)" fill="#eb8b51"/>
        </g>
        <g id="Group_263" data-name="Group 263" transform="translate(60.934 409.568)">
          <path id="Path_1065" data-name="Path 1065" d="M602.025,229.016a2.847,2.847,0,0,0-4.22-2.509c-23.163,12.681-65.615,30.618-111.445,23.81a2.874,2.874,0,1,0-.841,5.687,143.142,143.142,0,0,0,17.24,1.488c40.525,1.078,76.793-14.508,97.8-25.974a2.828,2.828,0,0,0,1.467-2.5Z" transform="translate(-483.063 -226.152)" fill="#eb8b51"/>
        </g>
        <path id="Path_1066" data-name="Path 1066" d="M563.084,187.723s-30.884,34.184-81.236,59.82c2.265-11.79,4.745-23.961,6.916-34.572h0l4.644-1.668Z" transform="translate(-429.652 -54.42)" fill="#eb8b51"/>
        <path id="Path_1067" data-name="Path 1067" d="M557.182,436.161l-25.822,76L499.611,439.59l22.971-248.21.615-9.683,11.628-1.224,1.145,13.117Z" transform="translate(-319.716 -99.296)" fill="#fff"/>
        <path id="Path_1068" data-name="Path 1068" d="M516.193,193.589l-5.807,6.73-7.58-8.94.615-9.683,11.627-1.224Z" transform="translate(-299.94 -99.296)" fill="#ededed"/>
        <path id="Path_1069" data-name="Path 1069" d="M536.461,202.61,522.553,232.7l-21.715-32.2,21.715-26.432Z" transform="translate(-312.126 -138.944)" fill="#fff"/>
        <path id="Path_1070" data-name="Path 1070" d="M498.272,207.458a54.707,54.707,0,0,1-.575-26.686,21.588,21.588,0,0,1,2.135-6c5.356-8.605,17.541-4.709,17.541-4.709,5.931,25.3,33.163,34.242,33.163,34.242l-26,41.833S507.2,240.528,498.272,207.458Z" transform="translate(-340.109 -169.181)" fill="#eb8b51"/>
        <path id="Path_1071" data-name="Path 1071" d="M520.184,170.889s16.19,15.327,11.438,33.616l-7.383,31.057-20.381-41.833S514.864,182.816,520.184,170.889Z" transform="translate(-293.43 -158.607)" fill="#eb8b51"/>
      </g>
      <g id="Group_273" data-name="Group 273" transform="translate(677.073)">
        <g id="Group_265" data-name="Group 265" transform="translate(49.466 167.716)">
          <path id="Path_1072" data-name="Path 1072" d="M562.308,177.252l-8.656,26.873-5.521,17.153c-.985,3.048-5.55,10.381-8.749,10.252-19.734-.812-32.689-12.5-40.381-22.523l5.953-41.776a160.715,160.715,0,0,1,23.638-2.351h.007Z" transform="translate(-499.001 -164.88)" fill="#fda893"/>
          <path id="Path_1073" data-name="Path 1073" d="M539.854,177.252,531.2,204.125c-20.561-11.912-27.117-33.257-28.569-39.123,1.157-.05,2.322-.093,3.515-.122Z" transform="translate(-476.547 -164.88)" fill="#fd896b"/>
        </g>
        <path id="Path_1074" data-name="Path 1074" d="M623.754,182.062c1.963,13.868,3.918,31.316,3.911,45.557a.624.624,0,0,0,0,.165l-.007.029c.007,3.48-.129,6.772-.388,9.77-.151,1.754-.338,3.587-.582,5.485-.41,3.429-.676,7.268-1,11.33-.014.208-.029.424-.043.654a161.3,161.3,0,0,1-2.15,17.973l-.007.043a73.572,73.572,0,0,1-1.9,7.714c-.453,1.4-.927,2.782-1.495,4.112-7.269,17.671-12.6,31.769-57.276,1.927-20.546-13.731-43.745-9.353-53.479-34.335l-.165-.431-.029-.079c-6.592-17.1-10.481-34.9-12.689-47.743a37.594,37.594,0,0,1,12.768-34.975c27.441-23.307,61.143-22.969,84.083-18.821A37.45,37.45,0,0,1,623.754,182.062Z" transform="translate(-468.558 -99.975)" fill="#fda893"/>
        <g id="Group_266" data-name="Group 266" transform="translate(139.386 177.92)">
          <path id="Path_1075" data-name="Path 1075" d="M525.154,169.187c-.453,1.4-.927,2.782-1.5,4.112a13.888,13.888,0,0,1-2.049,0,20.718,20.718,0,0,1-9.3-3.451,1.962,1.962,0,1,1,2.3-3.178,16.818,16.818,0,0,0,7.318,2.718A12.47,12.47,0,0,0,525.154,169.187Z" transform="translate(-511.509 -166.299)" fill="#fd896b"/>
        </g>
        <path id="Path_1076" data-name="Path 1076" d="M506.706,169.7s8.368-2.027,12.861-9.511c0,0-1.675,20.172-17.814,20.029Z" transform="translate(-432.503 -26.215)" fill="#fd896b"/>
        <path id="Path_1077" data-name="Path 1077" d="M655.526,195.313c13.185-14.285,13.25-37.692-6.909-40.87-34.176-5.392-53.68-12.142-74.4-12.876s-31.035,22.7-52.358,28.627-34.781,43.134-27.951,64.285c1.028,3.17,2,6.082,2.948,8.85a266,266,0,0,0,41.1,75.636q1.025,1.326,1.92,2.538c1.258,1.711,11.855,4.292,22.085-12.624,8.8-14.565,8.217-25.083,8.217-25.083-20.331-2.7-35.608-27.915-26.571-41.208,0,0,3.99-4.68,9.382-5.2,11.963-1.15,21.775,5.974,24.263,13.53s4.234,13.034,4.234,13.034l11.754.949s-5.787-19.339-6.067-26.362,10.366-4.493,8.533-17.822-13.372-14.989-8.389-20.144,38.728-1.057,48.541,4.436S655.526,195.313,655.526,195.313Z" transform="translate(-492.12 -141.551)" fill="#20363c"/>
        <g id="Group_269" data-name="Group 269" transform="translate(57.362 107.519)">
          <g id="Group_268" data-name="Group 268">
            <g id="Group_267" data-name="Group 267">
              <path id="Path_1078" data-name="Path 1078" d="M520.874,173.526a1.7,1.7,0,0,1-1.848-.92c-5.169-10.4-17.4-12.681-17.519-12.7a1.712,1.712,0,0,1,.6-3.372c.568.1,14.033,2.581,19.986,14.551a1.715,1.715,0,0,1-1.215,2.444Z" transform="translate(-500.099 -156.507)" fill="#fd896b"/>
            </g>
          </g>
        </g>
        <g id="Group_272" data-name="Group 272" transform="translate(63.575 112.28)">
          <g id="Group_271" data-name="Group 271">
            <g id="Group_270" data-name="Group 270">
              <path id="Path_1079" data-name="Path 1079" d="M502.994,166.085a1.716,1.716,0,0,1-1.905-2.322,15.535,15.535,0,0,1,5.342-6.283,1.709,1.709,0,0,1,1.955,2.8,12.3,12.3,0,0,0-4.127,4.759A1.729,1.729,0,0,1,502.994,166.085Z" transform="translate(-500.964 -157.169)" fill="#fd896b"/>
            </g>
          </g>
        </g>
        <path id="Path_1080" data-name="Path 1080" d="M520.177,161.48c.719,3.774-.647,7.2-3.048,7.664s-4.932-2.236-5.643-6.01.64-7.211,3.041-7.664S519.458,157.706,520.177,161.48Z" transform="translate(-373.458 -55.719)" fill="#20363c"/>
        <path id="Path_1081" data-name="Path 1081" d="M508.782,160.812s16.736-10.59,31.812-7.225l.079,8.016s-20.776,2.157-30.287,8.3A13.732,13.732,0,0,1,508.782,160.812Z" transform="translate(-390.287 -71.141)" fill="#20363c"/>
        <path id="Path_1082" data-name="Path 1082" d="M515.646,155.991s12.322,21.977,13.192,32.337c.489,5.83-15.162,9.727-15.162,9.727Z" transform="translate(-358.704 -52.178)" fill="#fda893"/>
        <path id="Path_1083" data-name="Path 1083" d="M534.97,163.031c-.015.208-.028.424-.043.654a161.594,161.594,0,0,1-2.15,17.973c-.446.029-.892.057-1.351.072-14.522.546-19.288-11.3-20.841-17.764Z" transform="translate(-377.841 -8.607)" fill="#fff"/>
      </g>
    </g>
    <g id="Group_339" data-name="Group 339" transform="translate(708.889 204.703)">
      <g id="Group_296" data-name="Group 296" transform="translate(1318.828 555.437)">
        <g id="Group_275" data-name="Group 275" transform="translate(22.746)">
          <path id="Path_1084" data-name="Path 1084" d="M582.057,262.737A27.94,27.94,0,1,1,610,234.8,27.966,27.966,0,0,1,582.057,262.737Zm0-47.11A19.173,19.173,0,1,0,601.23,234.8,19.2,19.2,0,0,0,582.057,215.627Z" transform="translate(-554.12 -206.856)" fill="#f1b28c"/>
        </g>
        <g id="Group_276" data-name="Group 276" transform="translate(123.329 98.023)">
          <path id="Path_1085" data-name="Path 1085" d="M596.048,276.372a27.94,27.94,0,1,1,27.937-27.944A27.972,27.972,0,0,1,596.048,276.372Zm0-47.117a19.173,19.173,0,1,0,19.173,19.173A19.2,19.2,0,0,0,596.048,229.255Z" transform="translate(-568.111 -220.491)" fill="#ffac00"/>
        </g>
        <g id="Group_283" data-name="Group 283" transform="translate(154.278 216.599)">
          <g id="Group_279" data-name="Group 279" transform="translate(27.124)">
            <g id="Group_277" data-name="Group 277">
              <path id="Path_1086" data-name="Path 1086" d="M580.574,265.08a4.384,4.384,0,0,1-4.385-4.385V241.37a4.382,4.382,0,1,1,8.763,0v19.324A4.383,4.383,0,0,1,580.574,265.08Z" transform="translate(-576.189 -236.985)" fill="#f1b28c"/>
            </g>
            <g id="Group_278" data-name="Group 278" transform="translate(0 33.825)">
              <path id="Path_1087" data-name="Path 1087" d="M580.574,269.778a4.382,4.382,0,0,1-4.385-4.378V246.068a4.382,4.382,0,0,1,8.763,0V265.4A4.381,4.381,0,0,1,580.574,269.778Z" transform="translate(-576.189 -241.69)" fill="#f1b28c"/>
            </g>
          </g>
          <g id="Group_282" data-name="Group 282" transform="translate(0 26.578)">
            <g id="Group_280" data-name="Group 280" transform="translate(36.894)">
              <path id="Path_1088" data-name="Path 1088" d="M599.288,249.445H581.927a4.382,4.382,0,0,1,0-8.763h17.361a4.382,4.382,0,1,1,0,8.763Z" transform="translate(-577.548 -240.682)" fill="#f1b28c"/>
            </g>
            <g id="Group_281" data-name="Group 281">
              <path id="Path_1089" data-name="Path 1089" d="M594.156,249.445H576.794a4.382,4.382,0,0,1,0-8.763h17.362a4.382,4.382,0,1,1,0,8.763Z" transform="translate(-572.416 -240.682)" fill="#f1b28c"/>
            </g>
          </g>
        </g>
        <g id="Group_295" data-name="Group 295" transform="translate(0 108.303)">
          <g id="Group_294" data-name="Group 294">
            <g id="Group_288" data-name="Group 288" transform="translate(27.131)">
              <g id="Group_285" data-name="Group 285">
                <g id="Group_284" data-name="Group 284">
                  <path id="Path_1090" data-name="Path 1090" d="M559.108,250.009a4.377,4.377,0,0,1-4.378-4.378V226.3a4.382,4.382,0,0,1,8.763,0V245.63A4.378,4.378,0,0,1,559.108,250.009Z" transform="translate(-554.73 -221.921)" fill="#ffac00"/>
                </g>
              </g>
              <g id="Group_287" data-name="Group 287" transform="translate(0 33.825)">
                <g id="Group_286" data-name="Group 286">
                  <path id="Path_1091" data-name="Path 1091" d="M559.108,254.714a4.383,4.383,0,0,1-4.378-4.385V231a4.382,4.382,0,0,1,8.763,0v19.324A4.384,4.384,0,0,1,559.108,254.714Z" transform="translate(-554.73 -226.626)" fill="#ffac00"/>
                </g>
              </g>
            </g>
            <g id="Group_293" data-name="Group 293" transform="translate(0 26.571)">
              <g id="Group_290" data-name="Group 290" transform="translate(36.894)">
                <g id="Group_289" data-name="Group 289">
                  <path id="Path_1092" data-name="Path 1092" d="M577.835,234.388H560.473a4.385,4.385,0,0,1,0-8.771h17.362a4.385,4.385,0,0,1,0,8.771Z" transform="translate(-556.088 -225.617)" fill="#ffac00"/>
                </g>
              </g>
              <g id="Group_292" data-name="Group 292">
                <g id="Group_291" data-name="Group 291">
                  <path id="Path_1093" data-name="Path 1093" d="M572.7,234.388H555.341a4.385,4.385,0,1,1,0-8.771H572.7a4.385,4.385,0,0,1,0,8.771Z" transform="translate(-550.956 -225.617)" fill="#ffac00"/>
                </g>
              </g>
            </g>
          </g>
        </g>
      </g>
      <g id="Group_325" data-name="Group 325" transform="translate(242.1 115.912)">
        <g id="Group_300" data-name="Group 300" transform="translate(66.204 43.048)">
          <g id="Group_299" data-name="Group 299">
            <g id="Group_298" data-name="Group 298">
              <g id="Group_297" data-name="Group 297">
                <path id="Path_1094" data-name="Path 1094" d="M438.329,207.587a27.94,27.94,0,1,1,27.944-27.944A27.972,27.972,0,0,1,438.329,207.587Zm0-8.771a19.173,19.173,0,1,0-19.173-19.173A19.191,19.191,0,0,0,438.329,198.816Z" transform="translate(-410.392 -151.706)" fill="#f1b28c"/>
              </g>
            </g>
          </g>
        </g>
        <g id="Group_304" data-name="Group 304" transform="translate(167.958 135.334)">
          <g id="Group_303" data-name="Group 303">
            <g id="Group_302" data-name="Group 302">
              <g id="Group_301" data-name="Group 301">
                <path id="Path_1095" data-name="Path 1095" d="M452.49,220.424a27.94,27.94,0,1,1,27.936-27.937A27.972,27.972,0,0,1,452.49,220.424Zm0-8.763a19.173,19.173,0,1,0-19.181-19.173A19.2,19.2,0,0,0,452.49,211.66Z" transform="translate(-424.546 -164.543)" fill="#ffac00"/>
              </g>
            </g>
          </g>
        </g>
        <g id="Group_311" data-name="Group 311" transform="translate(204.665)">
          <g id="Group_307" data-name="Group 307" transform="translate(0 27.132)">
            <g id="Group_305" data-name="Group 305">
              <path id="Path_1096" data-name="Path 1096" d="M457.747,153.87a4.383,4.383,0,0,0-4.385-4.378H434.037a4.382,4.382,0,1,0,0,8.763h19.324A4.384,4.384,0,0,0,457.747,153.87Z" transform="translate(-429.652 -149.492)" fill="#f1b28c"/>
            </g>
            <g id="Group_306" data-name="Group 306" transform="translate(33.824)">
              <path id="Path_1097" data-name="Path 1097" d="M462.445,153.87a4.381,4.381,0,0,0-4.378-4.378H438.735a4.382,4.382,0,0,0,0,8.763h19.331A4.383,4.383,0,0,0,462.445,153.87Z" transform="translate(-434.357 -149.492)" fill="#f1b28c"/>
            </g>
          </g>
          <g id="Group_310" data-name="Group 310" transform="translate(26.578)">
            <g id="Group_308" data-name="Group 308" transform="translate(0 36.894)">
              <path id="Path_1098" data-name="Path 1098" d="M442.112,172.6V155.235a4.382,4.382,0,1,0-8.763,0V172.6a4.382,4.382,0,0,0,8.763,0Z" transform="translate(-433.349 -150.85)" fill="#f1b28c"/>
            </g>
            <g id="Group_309" data-name="Group 309">
              <path id="Path_1099" data-name="Path 1099" d="M442.112,167.465V150.1a4.382,4.382,0,1,0-8.763,0v17.362a4.382,4.382,0,0,0,8.763,0Z" transform="translate(-433.349 -145.718)" fill="#f1b28c"/>
            </g>
          </g>
        </g>
        <g id="Group_324" data-name="Group 324" transform="translate(0 150.942)">
          <g id="Group_323" data-name="Group 323">
            <g id="Group_317" data-name="Group 317" transform="translate(0 27.124)">
              <g id="Group_313" data-name="Group 313">
                <g id="Group_312" data-name="Group 312">
                  <path id="Path_1100" data-name="Path 1100" d="M429.278,174.872a4.384,4.384,0,0,0-4.385-4.385H405.568a4.385,4.385,0,0,0,0,8.771h19.324A4.384,4.384,0,0,0,429.278,174.872Z" transform="translate(-401.183 -170.487)" fill="#ffac00"/>
                </g>
              </g>
              <g id="Group_316" data-name="Group 316" transform="translate(33.824)">
                <g id="Group_315" data-name="Group 315">
                  <g id="Group_314" data-name="Group 314">
                    <path id="Path_1101" data-name="Path 1101" d="M433.983,174.872a4.384,4.384,0,0,0-4.385-4.385H410.273a4.385,4.385,0,1,0,0,8.771H429.6A4.384,4.384,0,0,0,433.983,174.872Z" transform="translate(-405.888 -170.487)" fill="#ffac00"/>
                  </g>
                </g>
              </g>
            </g>
            <g id="Group_322" data-name="Group 322" transform="translate(26.578)">
              <g id="Group_319" data-name="Group 319" transform="translate(0 36.894)">
                <g id="Group_318" data-name="Group 318">
                  <path id="Path_1102" data-name="Path 1102" d="M413.643,193.593V176.231a4.382,4.382,0,1,0-8.763,0v17.362a4.382,4.382,0,0,0,8.763,0Z" transform="translate(-404.88 -171.846)" fill="#ffac00"/>
                </g>
              </g>
              <g id="Group_321" data-name="Group 321">
                <g id="Group_320" data-name="Group 320">
                  <path id="Path_1103" data-name="Path 1103" d="M413.643,188.454V171.092a4.382,4.382,0,0,0-8.763,0v17.362a4.382,4.382,0,1,0,8.763,0Z" transform="translate(-404.88 -166.714)" fill="#ffac00"/>
                </g>
              </g>
            </g>
          </g>
        </g>
      </g>
      <g id="Group_331" data-name="Group 331" transform="translate(1206.37)">
        <g id="Group_329" data-name="Group 329">
          <g id="Group_328" data-name="Group 328">
            <g id="Group_327" data-name="Group 327">
              <g id="Group_326" data-name="Group 326">
                <rect id="Rectangle_142" data-name="Rectangle 142" width="159.956" height="159.955" rx="7.151" fill="#ffac00"/>
              </g>
            </g>
          </g>
        </g>
        <g id="Group_330" data-name="Group 330" transform="translate(28.791 38.334)">
          <path id="Path_1104" data-name="Path 1104" d="M539.318,157.479c0-14.342,9.252-22.552,21.517-22.552s21.51,8.21,21.51,22.552c0,14.464-9.245,22.559-21.51,22.559S539.318,171.943,539.318,157.479Zm69.058-21.4H627.93l-55.306,80.978H553.078Zm-42.458,21.4c0-7.75-2.538-10.065-5.083-10.065s-5.1,2.315-5.1,10.065,2.551,10.065,5.1,10.065S565.918,165.229,565.918,157.479Zm32.746,38.174c0-14.342,9.245-22.559,21.51-22.559s21.517,8.217,21.517,22.559c0,14.465-9.252,22.567-21.517,22.567S598.664,210.117,598.664,195.653Zm26.6,0c0-7.75-2.545-10.057-5.09-10.057s-5.083,2.308-5.083,10.057,2.545,10.065,5.083,10.065S625.263,203.41,625.263,195.653Z" transform="translate(-539.318 -134.927)" fill="#fff"/>
        </g>
      </g>
      <g id="Group_338" data-name="Group 338" transform="translate(0 658.817)">
        <g id="Group_335" data-name="Group 335">
          <g id="Group_334" data-name="Group 334">
            <g id="Group_333" data-name="Group 333">
              <g id="Group_332" data-name="Group 332">
                <rect id="Rectangle_143" data-name="Rectangle 143" width="159.955" height="159.955" rx="7.151" fill="#ffac00"/>
              </g>
            </g>
          </g>
        </g>
        <g id="Group_337" data-name="Group 337" transform="translate(45.04 27.914)">
          <g id="Group_336" data-name="Group 336">
            <path id="Path_1105" data-name="Path 1105" d="M417.862,316.938l.007,12.293-15.615.014-.007-11.74c-11.078-.654-21.826-3.63-28.476-7.728l8.4-19.058a53.221,53.221,0,0,0,25.593,7.067c7.426-.007,10.079-1.56,10.079-4.22-.007-9.741-42.869-1.84-42.89-30.748-.015-12.516,9.058-23.048,27.225-25.615l-.014-12.07,15.615-.014.014,11.847c8.2.769,16.176,2.868,22.488,6.405l-7.843,18.951c-7.649-3.875-14.845-5.751-21.6-5.744-7.642.007-10.079,2.229-10.079,4.881.007,9.31,42.869,1.517,42.9,30.094C443.657,303.516,435.03,313.933,417.862,316.938Z" transform="translate(-373.772 -225.119)" fill="#fff"/>
          </g>
        </g>
      </g>
    </g>
  </g>
</svg>
