<svg xmlns="http://www.w3.org/2000/svg" width="3532.156" height="2538.196" viewBox="0 0 3532.156 2538.196">
  <g id="OBJECTS" transform="translate(-33.966 -89.14)">
    <g id="Group_405" data-name="Group 405" transform="translate(33.966 89.14)">
      <g id="Group_404" data-name="Group 404">
        <g id="Group_348" data-name="Group 348">
          <path id="Path_1108" data-name="Path 1108" d="M3307.131,2626.806c207.441,0,333.025-212.428,211.1-363.69q-3.851-4.783-7.955-9.426c-74.548-84.513-187.69-114.793-287.9-161.955-27.689-13.031-55.541-28.253-74.875-52.761-26.92-34.123-33.379-81.84-27.82-125.715,23.291-183.61,223.513-296.785,255.829-478.891,24.443-137.757-59.89-277.639-174.119-350.552s-252.305-91.249-385.975-96.947-269.186-.646-399.292-33.24c-34.31-8.6-69.839-20.969-93.154-48.69-26.438-31.433-31.989-76.878-27.787-118.538,11.331-112.3,267.225-498.4,139.066-625.8C2383.8,110.434,2315.34,83.3,2246.465,90.2c-68.874,6.916-133.212,38.537-193.519,74.066-127.44,75.071-571.955,572.732-731.9,647.951C1163.858,886.136,983.33,864.4,811.058,860.85S447.32,882.972,334.725,1019.584c-39.878,48.38-67.411,113.559-54.02,175.918,8.355,38.913,31.654,72.57,58.116,101.247,60.446,65.5,139.253,110.673,196.421,179.319s87.35,177.626,33.583,249.231c-20.863,27.778-51.2,45.649-80.908,62.4-166.181,93.7-352.629,189.864-425.215,372.33-37.065,93.187-36.362,195.922-8.837,292.633,29.152,102.465,131.626,174.144,248.994,174.144Z" transform="translate(-33.966 -89.14)" fill="#c6e8e2"/>
          <path id="Path_1109" data-name="Path 1109" d="M2413.12,2253.584c-74.548-84.513-187.689-114.793-287.9-161.955-27.689-13.031-55.541-28.253-74.875-52.761-26.92-34.123-33.379-81.841-27.82-125.715,23.29-183.61,223.513-296.785,255.828-478.891,24.444-137.757-59.89-277.639-174.119-350.552s-252.305-91.25-385.975-96.948-269.186-.646-399.291-33.24c-34.31-8.6-69.839-20.969-93.154-48.69-26.438-31.433-31.989-76.878-27.787-118.537,11.331-112.3,267.224-498.4,139.065-625.8-43.8-43.548-101.174-69.708-160.606-71.335,80.973,22.015,140.185,68.3,97.078,163.14-99.547,219.016-1023.379,947.719-374.309,1019.4s-426.073,649.062,63.716,688.883C1336.6,1990.954,570.14,2428.643,186.88,2626.7H2209.972c207.44,0,333.025-212.428,211.1-363.689Q2417.224,2258.227,2413.12,2253.584Z" transform="translate(1063.193 -89.034)" fill="#a6cef4" opacity="0.41" style="mix-blend-mode: multiply;isolation: isolate"/>
          <path id="Path_1110" data-name="Path 1110" d="M194.348,619.914s672.721,231.565,971.86-309.742S-370.267,418.792,194.348,619.914Z" transform="translate(337.609 -13.821)" fill="#c6e8e2"/>
          <path id="Path_1111" data-name="Path 1111" d="M918.095,99.65c47.66,31.645,57.119,88.723,7.292,178.885C713.753,661.5,315.181,657.61,100.08,622.564c78.5,24.419,683.888,193.191,963.334-312.481C1146.063,160.521,1065.711,101.931,918.095,99.65Z" transform="translate(440.403 -13.733)" fill="#a6cef4" opacity="0.41" style="mix-blend-mode: multiply;isolation: isolate"/>
        </g>
        <g id="Group_355" data-name="Group 355" transform="translate(1.898 1564.615)">
          <g id="Group_354" data-name="Group 354">
            <g id="Group_349" data-name="Group 349" transform="translate(141.617)">
              <path id="Path_1112" data-name="Path 1112" d="M218.559,1004.194s-24.55-22.93-8.069-109.929,58.288-170.547,37.777-264.927S66.929,296.975,66.389,281.148,16.775,558,99.94,673.295s93.179,155.292,89.484,215.926.858,109.455,9.982,123.557Z" transform="translate(-51.521 -280.531)" fill="#9ccec2"/>
              <path id="Path_1113" data-name="Path 1113" d="M190.3,828.674c-9.671,38.807-15.516,136.122-.057,159.413,1.439,2.174,3.515.94,6.1-3.082-4.709-16.088-7.8-44.276,1.1-91.282,16.481-87.006,58.288-170.547,37.777-264.927S53.88,296.433,53.34,280.606c0,0,24.239,198.276,105.85,334.742C217.625,713.055,199.959,789.868,190.3,828.674Z" transform="translate(-38.472 -279.989)" fill="#61b4a0"/>
            </g>
            <g id="Group_350" data-name="Group 350" transform="translate(324.14 212.293)">
              <path id="Path_1114" data-name="Path 1114" d="M87.694,811.828s-47.251-117.957,32.823-220.1S328.653,358.451,331.2,306.5c0,0,32.9,246.664-71.319,316.487s-177.316,80.973-159.241,188.4Z" transform="translate(-73.848 -306.499)" fill="#9ccec2"/>
              <path id="Path_1115" data-name="Path 1115" d="M190.071,573.4C73.863,657.991,64.356,755.429,82.39,800.621a11.528,11.528,0,0,0,7.562,6.81c-15.582-103.7,56.914-115.5,159.821-184.444C354,553.163,321.091,306.5,321.091,306.5S306.295,488.81,190.071,573.4Z" transform="translate(-63.736 -306.499)" fill="#61b4a0"/>
            </g>
            <g id="Group_352" data-name="Group 352" transform="translate(0 165.327)">
              <path id="Path_1116" data-name="Path 1116" d="M294.481,855.7s15.156-62.465,7.088-129.9-78.5-105.368-144.33-176.588c-33.861-36.649-43.875-230.445-22.882-248.455,0,0-116.208,140.831-98.28,243.942s207.49,170.122,225.041,219.94,16.088,91.658,16.088,91.658Z" transform="translate(-34.198 -300.754)" fill="#9ccec2"/>
              <g id="Group_351" data-name="Group 351" transform="translate(46.812)">
                <path id="Path_1117" data-name="Path 1117" d="M54,353.877c-38.414,104.01.956,229.979,128.544,308.222,93.931,57.6,64.018,177.373,64.018,177.373l15.345-47.259a375.094,375.094,0,0,0-1.422-68.719c-8.061-67.428-78.5-105.368-144.33-176.588-32.659-35.349-43.123-216.826-24.991-245.83A620.587,620.587,0,0,0,54,353.877Z" transform="translate(-39.924 -298.451)" fill="#61b4a0"/>
                <path id="Path_1118" data-name="Path 1118" d="M46.192,303.378c1.316-1.66,2.109-2.624,2.109-2.624A11.884,11.884,0,0,0,46.192,303.378Z" transform="translate(5.047 -300.754)" fill="#49b4d6"/>
              </g>
            </g>
            <g id="Group_353" data-name="Group 353" transform="translate(362.299 465.145)">
              <path id="Path_1119" data-name="Path 1119" d="M78.516,584.756s27.239-101.06,94.6-114.663S317.831,356.951,322.009,337.429C322.009,337.429,310.653,525.152,78.516,584.756Z" transform="translate(-78.516 -337.429)" fill="#9ccec2"/>
              <path id="Path_1120" data-name="Path 1120" d="M146.256,503.5c-41.276,20.634-58.435,48.4-64.533,73.592C288.4,510.633,299,337.429,299,337.429c-.826,3.859-4.594,10.914-10.5,19.743C268.236,392.684,219.161,467.052,146.256,503.5Z" transform="translate(-55.506 -337.429)" fill="#61b4a0"/>
            </g>
          </g>
          <path id="Path_1121" data-name="Path 1121" d="M405.561,363.131H53.251l41.84,263.145a41.1,41.1,0,0,0,40.589,34.646H323.132a41.1,41.1,0,0,0,40.589-34.646Z" transform="translate(102.507 312.128)" fill="#ec8e34"/>
          <path id="Path_1122" data-name="Path 1122" d="M398.644,406.668l6.923-43.537H53.251l6.922,43.537Z" transform="translate(102.504 312.128)" fill="#eb8626"/>
          <path id="Path_1123" data-name="Path 1123" d="M158.252,363.131l-41.84,263.145a41.1,41.1,0,0,1-40.589,34.646h85.355a41.1,41.1,0,0,0,40.589-34.646l41.84-263.145Z" transform="translate(264.461 312.128)" fill="#eb8626"/>
        </g>
        <g id="Group_373" data-name="Group 373" transform="translate(526.529 804.704)">
          <g id="Group_356" data-name="Group 356" transform="translate(942.888 290.442)">
            <rect id="Rectangle_162" data-name="Rectangle 162" width="73.333" height="599.76" transform="translate(354.269 843.289)" fill="#fff"/>
            <rect id="Rectangle_163" data-name="Rectangle 163" width="28.809" height="599.759" transform="translate(398.793 843.289)" fill="#e8f2fc"/>
            <path id="Path_1124" data-name="Path 1124" d="M660.672,393.615H259.819a24.558,24.558,0,0,0-24.558,24.558h0a24.558,24.558,0,0,0,24.558,24.557H660.672a24.558,24.558,0,0,0,24.557-24.557h0A24.558,24.558,0,0,0,660.672,393.615Z" transform="translate(-59.09 1000.32)" fill="#fff"/>
            <path id="Path_1125" data-name="Path 1125" d="M657.522,393.615H256.669A24.465,24.465,0,0,0,235.7,405.559H582.859a24.426,24.426,0,0,1,20.969,37.171h53.694a24.558,24.558,0,1,0,0-49.115Z" transform="translate(-55.94 1000.32)" fill="#e8f2fc"/>
            <rect id="Rectangle_164" data-name="Rectangle 164" width="73.333" height="53.403" transform="translate(354.269 843.289)" fill="#e8f2fc"/>
            <path id="Path_1126" data-name="Path 1126" d="M1021.221,230.207a83.486,83.486,0,0,0-33.942-7.1H574.449a84.067,84.067,0,0,0-82.567,68.278L362.512,967.7a84.418,84.418,0,0,0,0,31.809c.041.229.114.45.164.678H247.907a34.2,34.2,0,0,0,0,68.4H618.881v-1.038h239.1A84.067,84.067,0,0,0,940.55,999.27l129.3-676.318A84.171,84.171,0,0,0,1021.221,230.207Z" transform="translate(-213.711 -223.103)" fill="#f93"/>
            <path id="Path_1127" data-name="Path 1127" d="M1069.8,316.69,940.545,993.023a84,84,0,0,1-82.535,68.229H618.851v1.079H247.918a34.2,34.2,0,0,1,0-68.408H362.679a2.117,2.117,0,0,1-.18-.72c.99.09,2.167.09,3.156.09h412.78a115.654,115.654,0,0,0,113.6-93.882l129.157-675.435A84.146,84.146,0,0,1,1069.8,316.69Z" transform="translate(-213.689 -216.832)" fill="#e8f2fc"/>
            <path id="Path_1128" data-name="Path 1128" d="M892.8,306.1l-.809,4.046a115.654,115.654,0,0,1-113.6,93.882H365.609c-.989,0-2.166,0-3.156-.09a2.113,2.113,0,0,0,.18.719H247.873a34.125,34.125,0,0,0-33.755,28.98V341.207c0-.18-.09-.45-.09-.719-2.7-18.271,12.7-34.384,31.237-34.384Z" transform="translate(-213.644 372.429)" fill="#fff"/>
            <path id="Path_1129" data-name="Path 1129" d="M891.948,230.207,762.816,905.65a115.758,115.758,0,0,1-113.592,93.931H236.4c-1.022,0-2.134,0-3.155-.074a84.41,84.41,0,0,1,0-31.809L362.609,291.381A84.067,84.067,0,0,1,445.176,223.1h412.83A83.487,83.487,0,0,1,891.948,230.207Z" transform="translate(-84.438 -223.103)" fill="#fff"/>
          </g>
          <g id="Group_360" data-name="Group 360" transform="translate(42.479 135.403)">
            <path id="Path_1130" data-name="Path 1130" d="M833.154,204.138H130.382a26.808,26.808,0,0,0-26.528,30.673l60.176,413.2a26.812,26.812,0,0,0,26.528,22.947H893.33a26.809,26.809,0,0,0,26.536-30.673L859.682,227.077A26.8,26.8,0,0,0,833.154,204.138Z" transform="translate(-103.569 -204.138)" fill="#61b4a0"/>
            <path id="Path_1131" data-name="Path 1131" d="M734.849,204.138H130.382a26.808,26.808,0,0,0-26.528,30.673L130.447,417.44c64.8,28.343,138.264,44.448,216.2,44.448C548.182,461.888,666.94,354.828,734.849,204.138Z" transform="translate(-103.569 -204.138)" fill="#4f9b89"/>
            <g id="Group_357" data-name="Group 357" transform="translate(258.839 315.367)">
              <path id="Path_1132" data-name="Path 1132" d="M287.161,242.717H154.088a18.823,18.823,0,0,0-18.655,21.549L175.752,541a21.5,21.5,0,0,0,.155,2.616l1.823,10.914a18.817,18.817,0,0,0,18.606,16.1H327.668Z" transform="translate(-135.231 -242.701)" fill="#9ccec2"/>
              <path id="Path_1133" data-name="Path 1133" d="M374.359,551.288a19.073,19.073,0,0,0-19.072-18.77H254.612a29.677,29.677,0,0,1-29.405-25.653L195.7,291.3h17.486a18.835,18.835,0,0,0,18.639-21.549l-1.79-10.914A18.833,18.833,0,0,0,211.4,242.715l-34.915.008A26.323,26.323,0,0,0,150.4,272.546l36.8,274.23a27.527,27.527,0,0,0,27.28,23.863l140.8.025a19.081,19.081,0,0,0,19.08-19.366Z" transform="translate(-28.127 -242.715)" fill="#61b4a0"/>
            </g>
            <g id="Group_358" data-name="Group 358" transform="translate(507.527 394.556)">
              <path id="Path_1134" data-name="Path 1134" d="M190.856,265a12.6,12.6,0,1,1-12.606-12.6A12.6,12.6,0,0,1,190.856,265Z" transform="translate(-165.652 -252.4)" fill="#9ccec2"/>
              <path id="Path_1135" data-name="Path 1135" d="M198.763,265a12.6,12.6,0,1,1-12.6-12.6A12.6,12.6,0,0,1,198.763,265Z" transform="translate(-108.855 -252.4)" fill="#9ccec2"/>
              <circle id="Ellipse_21" data-name="Ellipse 21" cx="12.598" cy="12.598" r="12.598" transform="translate(121.41)" fill="#9ccec2"/>
            </g>
            <path id="Path_1136" data-name="Path 1136" d="M211.969,395.776l36.738,252.231a26.806,26.806,0,0,0,26.528,22.947h10.546a26.809,26.809,0,0,0,26.536-30.673L252.133,227.077a26.8,26.8,0,0,0-26.528-22.939H215.059a26.8,26.8,0,0,0-26.528,30.673l23.438,160.966" transform="translate(503.98 -204.138)" fill="#9ccec2"/>
            <g id="Group_359" data-name="Group 359" transform="translate(194.903 45.11)">
              <path id="Path_1137" data-name="Path 1137" d="M382.565,209.656H137.151a9.737,9.737,0,0,0-9.614,11.29l1.643,10.161a9.746,9.746,0,0,0,9.614,8.183H384.216A9.737,9.737,0,0,0,393.83,228l-1.651-10.162A9.733,9.733,0,0,0,382.565,209.656Z" transform="translate(-127.411 -209.656)" fill="#9ccec2"/>
            </g>
          </g>
          <g id="Group_369" data-name="Group 369" transform="translate(805.848)">
            <path id="Path_1138" data-name="Path 1138" d="M648.13,493.9c-7.79-59.817-95.394-31.842-62.506-87.587,30.411-51.552-4.987-74.36-46.826-82.4-53.35-10.26-23.062-31.269-49.025-81.047-32.986-63.25-83.868-44.464-83.868-44.464s-63.789-34.678-128.772,20.151c-68.474,57.773-53.546,108.883-16.89,179.065,18.525,35.48-4.218,67.076-20.429,132.288-19.448,78.235,77.147,235.718,283.836,129.345C603.576,618.12,652.258,525.636,648.13,493.9Z" transform="translate(34.893 -187.461)" fill="#2a8871"/>
            <path id="Path_1139" data-name="Path 1139" d="M561.411,254.5s-31.555,3.376-63.667,35.488c-21.582,21.59-127.252,231.917-127.252,231.917L272.964,223.235l-71.409,5.494s80.4,480.363,142.956,481.254c59.154.85,247.041-310.135,247.041-310.135Z" transform="translate(-163.891 68.286)" fill="#ec8e34"/>
            <path id="Path_1140" data-name="Path 1140" d="M539.853,391.329l62.531,234.083L232.669,655.618l1.692,66.757s426.2,1.9,506.49,1.063c53.473-.564-47.2-423.939-111.425-472.392-50.791-38.308-191.2-28.1-191.2-28.1L338.167,265.418s-116.061,114.924-46.761,223.1c54.585,85.208-14.993,250.735-14.993,250.735L512.72,753.31,723.766,755.3Z" transform="translate(59.352 57.373)" fill="#ec8e34"/>
            <path id="Path_1141" data-name="Path 1141" d="M271.742,611.261l13.244-2.42c12.671-55.344,14.936-130.972-13.947-167.318C213.806,369.5,272.731,264.9,305.824,227.085h-.057c-5.3,5.346-114.147,117.311-46.557,222.908C291.509,500.416,283.612,566.078,271.742,611.261Z" transform="translate(91.549 95.91)" fill="#d17924"/>
            <path id="Path_1142" data-name="Path 1142" d="M322.645,276.677c-39.1,1.431-80.924,15.418-100.5,38.414a7.9,7.9,0,0,0,6.057,12.974H323.25Z" transform="translate(-29.561 451.732)" fill="#ffb19e"/>
            <g id="Group_363" data-name="Group 363" transform="translate(322.392)">
              <path id="Path_1143" data-name="Path 1143" d="M411.64,299.392v78.937l-70.746,81.006-.45-.9-19.268-41.227V372.926a89.8,89.8,0,0,1-74.793-69.937l-10-54.633s52.753-5.583,94.691-48.249c0,0,12.606,23.135,30.7,41.047,13.145,13.056,31.326,16.293,38.251,23.405C409.3,274.008,412.629,286.426,411.64,299.392Z" transform="translate(-236.384 -97.665)" fill="#ffb19e"/>
              <path id="Path_1144" data-name="Path 1144" d="M336.49,320.918s-2.673-33.313-15.214-61.672c-14.47-32.716-34.842-71.024-77.115-71.139,0,0,102.645-15.958,119.838,126.95Z" transform="translate(-180.577 -187.575)" fill="#e5ad77"/>
              <g id="Group_361" data-name="Group 361" transform="translate(124.908 111.771)">
                <path id="Path_1145" data-name="Path 1145" d="M344.1,246.3c-2.968-27.484-25.988-47.546-51.429-44.8s-43.654,27.255-40.687,54.74,26,47.546,51.429,44.8S347.063,273.782,344.1,246.3Z" transform="translate(-251.663 -201.247)" fill="#e5ad77"/>
                <path id="Path_1146" data-name="Path 1146" d="M312.074,296.148c-24.492,2.641-46.663-16.669-49.516-43.131-2.649-24.525,12.238-46.557,33.918-51.764-1.259.033-2.526.065-3.81.2-25.432,2.747-43.654,27.255-40.687,54.74s26,47.546,51.429,44.8a43.311,43.311,0,0,0,21.034-8.2A41.455,41.455,0,0,1,312.074,296.148Z" transform="translate(-251.663 -201.206)" fill="#fa9457"/>
                <path id="Path_1147" data-name="Path 1147" d="M300.118,226.079c-1.439-13.325-12.6-23.046-24.934-21.713-12.32,1.332-21.148,13.2-19.718,26.528s12.6,23.045,24.925,21.713S301.549,239.4,300.118,226.079Z" transform="translate(-225.466 -179.745)" fill="#fa9457"/>
              </g>
              <path id="Path_1148" data-name="Path 1148" d="M313.636,217.15c-2.967,3.875-19.71,24.934-33.125,36.191a23.451,23.451,0,0,0-8.281,18.181l-6.2,64.624-19.269-41.227v-44.1l.45-.45S291.76,243.621,313.636,217.15Z" transform="translate(-161.965 24.626)" fill="#f48f7a"/>
              <g id="Group_362" data-name="Group 362" transform="translate(99.925 194.426)">
                <path id="Path_1149" data-name="Path 1149" d="M251.936,255.323l-.776-4.5c25.808-4.415,44.676-39.126,44.865-39.469l4.03,2.158C299.245,215.02,279.919,250.541,251.936,255.323Z" transform="translate(-230.291 -211.358)" fill="#e5ad77"/>
                <path id="Path_1150" data-name="Path 1150" d="M275.06,221.327c-.613-4.235-7.014-6.556-14.306-5.2-7.292,1.373-12.712,5.911-12.1,10.137s7.014,6.565,14.306,5.2S275.673,225.562,275.06,221.327Z" transform="translate(-248.607 -179.913)" fill="#e5ad77"/>
              </g>
            </g>
            <path id="Path_1151" data-name="Path 1151" d="M288.093,329.272s10.08-82.657,1.005-85.682-18.148,32.259-18.148,32.259-38.3-74.589-64.509-66.528,21.983,122.772,21.983,122.772Z" transform="translate(-184.841 -35.92)" fill="#ffb19e"/>
            <path id="Path_1152" data-name="Path 1152" d="M241.37,493.647,532.506,469.3A16.788,16.788,0,0,0,547.6,449.33c-10.758-54.421-41.84-210.465-43.7-205.814-2.256,5.633,29.291,183.66-7.889,201.685C470.589,457.53,241.37,493.647,241.37,493.647Z" transform="translate(121.782 213.074)" fill="#d17924"/>
            <g id="Group_365" data-name="Group 365" transform="translate(0 796.254)">
              <g id="Group_364" data-name="Group 364" transform="translate(406.782 716.874)">
                <path id="Path_1153" data-name="Path 1153" d="M346.15,427.456a9.462,9.462,0,0,0-5.543,3.769c-18.533,25.776-34.964,31.866-67.468,36.24a19.248,19.248,0,0,0-6.1,2.035c2.493-3.744,13.325-21.484,5.861-37.458a181.635,181.635,0,0,0-18.541-31.106l47.489-28.269S330.969,406.266,346.15,427.456Z" transform="translate(-191.79 -372.667)" fill="#ffb19e"/>
                <path id="Path_1154" data-name="Path 1154" d="M436.22,439.976c-8.4,8.044-143.9,82.11-176.089,100.691-3.932,2.273-11.9,6.425-13.358,2.125-2.289-6.72,56.31-119.788,81.284-123.173,32.479-4.4,48.936-10.464,67.436-36.264a9.457,9.457,0,0,1,15.6.18C424.088,403.2,442.972,433.517,436.22,439.976Z" transform="translate(-246.707 -324.806)" fill="#2a8871"/>
              </g>
              <path id="Path_1155" data-name="Path 1155" d="M534.577,284.976S205.754,437.4,197.04,543.11C189.282,637.122,673.9,1067.226,673.9,1067.226l76.624-31.547L485.3,608.167s280.966-138.493,349.62-305.238Z" transform="translate(-196.948 -284.976)" fill="#2a8871"/>
              <path id="Path_1156" data-name="Path 1156" d="M256.6,486.244c-22.31,42.919-38.692,102.858-50.121,157.181,37.229,44.194,84.186,93.955,132.721,142.891-35.847-141.641-67.673-283.689-56.677-304.028,20.969-38.8,160.312-141.951,258.78-193.249C541.306,289.038,308.359,386.7,256.6,486.244Z" transform="translate(-128.539 -255.831)" fill="#609084"/>
            </g>
            <g id="Group_368" data-name="Group 368" transform="translate(151.753 803.627)">
              <g id="Group_366" data-name="Group 366" transform="translate(1.179 783.116)">
                <path id="Path_1157" data-name="Path 1157" d="M320.5,451.118a9.469,9.469,0,0,0-6.679.581c-28.76,13.44-46.074,10.726-76.567-1.341a19.258,19.258,0,0,0-6.319-1.2c4.006-2.044,22.122-12.238,23.413-29.822a181.685,181.685,0,0,0-.981-36.191l55.247-1.471S317.607,425.212,320.5,451.118Z" transform="translate(-106.022 -381.672)" fill="#ffb19e"/>
                <path id="Path_1158" data-name="Path 1158" d="M431.311,465.429c-11.257,2.918-171.176,1.144-208.348,1.627a7.188,7.188,0,0,1-7.186-8.486c1.292-6.973,107.657-77.008,131.094-67.754,30.493,12.026,47.815,14.764,76.567,1.292a9.453,9.453,0,0,1,13.513,7.775C438.685,423.4,440.361,463.082,431.311,465.429Z" transform="translate(-215.655 -322.104)" fill="#2a8871"/>
              </g>
              <g id="Group_367" data-name="Group 367">
                <path id="Path_1159" data-name="Path 1159" d="M845.731,294.217s27.55,186.21-139.36,233.347c-131.576,37.164-272.66,56.113-272.66,56.113l10.1,528.522H356.04S194.928,547.053,217.72,504.976c25.882-47.783,230.9-192.914,318.481-219.1Z" transform="translate(-215.511 -285.878)" fill="#61b4a0"/>
                <path id="Path_1160" data-name="Path 1160" d="M302.02,578.8S443.1,559.848,574.68,522.685C741.589,475.547,714.04,289.337,714.04,289.337l-103.332-2.779c-31.04,66.757-132.01,232.047-376.843,249.877L289.3,1107.32h22.816Z" transform="translate(-83.82 -280.999)" fill="#067c60" opacity="0.13" style="mix-blend-mode: multiply;isolation: isolate"/>
              </g>
            </g>
          </g>
          <g id="Group_372" data-name="Group 372" transform="translate(0 779.29)">
            <g id="Group_370" data-name="Group 370" transform="translate(52.821 25.096)">
              <path id="Path_1161" data-name="Path 1161" d="M141.584,1206.042l-36.75-.282L257.62,287.5l36.973-.284Z" transform="translate(-104.834 -277.015)" fill="#fff"/>
              <path id="Path_1162" data-name="Path 1162" d="M460.509,1214.7l39.036.3L310.117,285.971l-38.794.3Z" transform="translate(1089.722 -285.971)" fill="#fff"/>
            </g>
            <g id="Group_371" data-name="Group 371" transform="translate(195.596 25.096)">
              <path id="Path_1163" data-name="Path 1163" d="M159.209,338.126l10.075-50.907-36.974.284L122.3,338.126Z" transform="translate(-122.299 -277.015)" fill="#e4edf7"/>
              <path id="Path_1164" data-name="Path 1164" d="M322.543,347.082l-12.426-61.111-38.794.3,12.357,60.814Z" transform="translate(946.947 -285.971)" fill="#e4edf7"/>
            </g>
            <path id="Path_1165" data-name="Path 1165" d="M1773.9,282.9H117.037a18.662,18.662,0,0,0-18.664,18.663h0a18.662,18.662,0,0,0,18.664,18.664H1773.9a18.663,18.663,0,0,0,18.664-18.664h0A18.662,18.662,0,0,0,1773.9,282.9Z" transform="translate(-98.373 -282.901)" fill="#fff"/>
          </g>
        </g>
        <g id="Group_388" data-name="Group 388" transform="translate(586.384 112.396)">
          <g id="Group_378" data-name="Group 378" transform="translate(463.786 384.413)">
            <path id="Path_1166" data-name="Path 1166" d="M659.655,423.1,615.992,170.284a23.806,23.806,0,0,0-23.56-20.372l-406.191,4.439a23.81,23.81,0,0,0-23.56,27.239l38.308,221.828,19.375,125.593a7.357,7.357,0,0,0,13.4,2.951l51.7-77.785,350.634-3.834A23.813,23.813,0,0,0,659.655,423.1Z" transform="translate(-162.427 -149.912)" fill="#61b4a0"/>
            <g id="Group_377" data-name="Group 377" transform="translate(110.806 78.439)">
              <g id="Group_374" data-name="Group 374">
                <path id="Path_1167" data-name="Path 1167" d="M417.959,159.507H182.56a6.571,6.571,0,0,0-6.491,7.627l1.1,6.867a6.585,6.585,0,0,0,6.5,5.526h235.4a6.581,6.581,0,0,0,6.5-7.627l-1.112-6.867A6.579,6.579,0,0,0,417.959,159.507Z" transform="translate(-175.981 -159.507)" fill="#fff"/>
              </g>
              <g id="Group_375" data-name="Group 375" transform="translate(7.907 62.481)">
                <path id="Path_1168" data-name="Path 1168" d="M418.932,167.15H183.525a6.583,6.583,0,0,0-6.491,7.635l1.112,6.859a6.584,6.584,0,0,0,6.491,5.534H420.044a6.579,6.579,0,0,0,6.491-7.635l-1.112-6.867A6.578,6.578,0,0,0,418.932,167.15Z" transform="translate(-176.949 -167.15)" fill="#fff"/>
              </g>
              <g id="Group_376" data-name="Group 376" transform="translate(78.302 130.318)">
                <path id="Path_1169" data-name="Path 1169" d="M301.076,175.448l-108.932.188a6.581,6.581,0,0,0-6.5,7.627l1.112,6.867a6.577,6.577,0,0,0,6.491,5.526l108.94-.188a6.575,6.575,0,0,0,6.491-7.627l-1.112-6.867A6.571,6.571,0,0,0,301.076,175.448Z" transform="translate(-185.56 -175.448)" fill="#fff"/>
              </g>
            </g>
          </g>
          <g id="Group_383" data-name="Group 383" transform="translate(2157.786)">
            <path id="Path_1170" data-name="Path 1170" d="M822.906,359.862l54.053-237.8c2.8-11.012-3.376-19.17-14.494-19.17l-383.751,4.177c-13.652,0-28.972,12.115-32.414,25.62L398.877,341.345,369.847,459.483c-1.529,6.246,5.894,8.044,11.494,2.779l77.9-73.174L790.5,385.482C804.153,385.482,819.472,373.367,822.906,359.862Z" transform="translate(-369.644 -102.889)" fill="#61b4a0"/>
            <g id="Group_382" data-name="Group 382" transform="translate(148.622 77.221)">
              <g id="Group_379" data-name="Group 379" transform="translate(15.292)">
                <path id="Path_1171" data-name="Path 1171" d="M610.528,112.335H399.858c-3.63,0-7.693,3.246-8.551,6.826l-1.456,6.148c-.686,2.845.941,4.946,3.834,4.946h210.67a9.641,9.641,0,0,0,8.542-6.834l1.464-6.139C615.04,114.428,613.413,112.335,610.528,112.335Z" transform="translate(-389.695 -112.335)" fill="#fff"/>
              </g>
              <g id="Group_380" data-name="Group 380" transform="translate(0 55.917)">
                <path id="Path_1172" data-name="Path 1172" d="M608.662,119.175H397.983c-3.621,0-7.684,3.254-8.542,6.834l-1.463,6.139c-.679,2.853.948,4.954,3.834,4.954H602.49c3.621,0,7.693-3.254,8.543-6.834l1.463-6.148C613.174,121.276,611.547,119.175,608.662,119.175Z" transform="translate(-387.824 -119.175)" fill="#fff"/>
              </g>
              <g id="Group_381" data-name="Group 381" transform="translate(38.651 116.625)">
                <path id="Path_1173" data-name="Path 1173" d="M500.272,126.6l-97.56.172c-3.622,0-7.685,3.245-8.543,6.826l-1.463,6.148c-.678,2.853.948,4.946,3.834,4.946l97.56-.172a9.644,9.644,0,0,0,8.543-6.826l1.464-6.148C504.785,128.7,503.166,126.6,500.272,126.6Z" transform="translate(-392.552 -126.601)" fill="#fff"/>
              </g>
            </g>
          </g>
          <g id="Group_387" data-name="Group 387" transform="translate(0 331.316)">
            <path id="Path_1174" data-name="Path 1174" d="M530.74,467.866a7.354,7.354,0,0,0,11.952-6.908L490.609,160.707a20.206,20.206,0,0,0-20-17.29l-344.707,3.769a20.208,20.208,0,0,0-20,23.119l37.049,214.545a20.212,20.212,0,0,0,20,17.3l265.426-2.9a53.224,53.224,0,0,1,34.629,12.3Z" transform="translate(-105.695 -143.417)" fill="#ec8e34"/>
            <g id="Group_386" data-name="Group 386" transform="translate(75.723 90.113)">
              <g id="Group_384" data-name="Group 384">
                <path id="Path_1175" data-name="Path 1175" d="M356.941,154.44h-235.4a6.588,6.588,0,0,0-6.5,7.635l1.112,6.867a6.579,6.579,0,0,0,6.5,5.526h235.4a6.571,6.571,0,0,0,6.491-7.627l-1.112-6.867A6.578,6.578,0,0,0,356.941,154.44Z" transform="translate(-114.958 -154.44)" fill="#fff"/>
              </g>
              <g id="Group_385" data-name="Group 385" transform="translate(7.913 62.49)">
                <path id="Path_1176" data-name="Path 1176" d="M357.91,162.084H122.5a6.576,6.576,0,0,0-6.491,7.627l1.112,6.867a6.571,6.571,0,0,0,6.491,5.526h235.4a6.578,6.578,0,0,0,6.5-7.627L364.4,167.61A6.585,6.585,0,0,0,357.91,162.084Z" transform="translate(-115.926 -162.084)" fill="#fff"/>
              </g>
            </g>
          </g>
        </g>
        <g id="Group_403" data-name="Group 403" transform="translate(2116.157 198.168)">
          <g id="Group_401" data-name="Group 401">
            <g id="Group_391" data-name="Group 391" transform="translate(0 362.22)">
              <path id="Path_1177" data-name="Path 1177" d="M905.3,244.45l-1.267,47.26L875.662,1389.155H762.275L661.829,448.825a.393.393,0,0,0-.09.27L534.062,766.13l87.129,623.009-41.905.36-69.307.637S302.652,768.4,306.83,728.124c4.259-40.18,159.878-479.594,159.878-479.594Z" transform="translate(-192.773 464.819)" fill="#61b4a0"/>
              <path id="Path_1178" data-name="Path 1178" d="M769.643,187.7,556.631,158.415l-4.99-.726-101.869.454-.907.182L327.207,188.766v684.2H769.643Z" transform="translate(-46.117 -157.689)" fill="#ec8e34"/>
              <path id="Path_1179" data-name="Path 1179" d="M425.917,275.782s15.484-96.726,26.724-97.193,10.022,42.363,10.022,42.363,67.566-71.866,94.569-54.225-64.779,131.642-64.779,131.642Z" transform="translate(662.126 -112.84)" fill="#ffb19e"/>
              <path id="Path_1180" data-name="Path 1180" d="M696.659,158.127,708.195,913.66H548.889L537.64,706.874,326.275,703.44a32.392,32.392,0,0,1-32.169-41.325L399.4,296.007a124.422,124.422,0,0,1,89.533-86.533l206.639-51.707Z" transform="translate(-292.823 -157.132)" fill="#9ccec2"/>
              <path id="Path_1181" data-name="Path 1181" d="M1006.79,345.656,801.859,766.635c-12.974,23.585-46.622,24.125-60.5,1.177L580.978,502.027l-7.987,411.554H402.821L355.193,157.958l.638-.18,216.442,29.757a125.453,125.453,0,0,1,94.061,69.3L775.821,482.62a8.58,8.58,0,0,0,14.241,1.716l139.27-166.369Z" transform="translate(154.681 -157.053)" fill="#9ccec2"/>
              <path id="Path_1182" data-name="Path 1182" d="M322.647,321.16H530.322l2.006-106.345L324.654,211.8Z" transform="translate(-78.835 230.589)" fill="#9ccec2"/>
              <path id="Path_1183" data-name="Path 1183" d="M349.006,289.149c58.574-2.142,121.227-23.094,150.551-57.544a11.828,11.828,0,0,0-9.075-19.432H348.1Z" transform="translate(103.782 233.231)" fill="#ffb19e"/>
              <path id="Path_1184" data-name="Path 1184" d="M449.646,229.525l.2-3.408-127.059-.934,11.144,204.773,37.906-169.668Z" transform="translate(-77.858 326.575)" fill="#2a8871" opacity="0.41"/>
              <path id="Path_1185" data-name="Path 1185" d="M478.55,250.231,450.187,1347.675H442.2L366.068,250.231Z" transform="translate(232.707 506.299)" fill="#067c60" opacity="0.32" style="mix-blend-mode: multiply;isolation: isolate"/>
              <path id="Path_1186" data-name="Path 1186" d="M593.938,346.777s-281.719,20.4-279.9,15.05l48.9-168.519.719,2.542,4.807,117.556C369.1,329.373,579.247,342.608,593.938,346.777Z" transform="translate(-140.699 97.875)" fill="#2a8871" opacity="0.41"/>
              <path id="Path_1187" data-name="Path 1187" d="M603.692,602.02,808.623,181.04l-.948-.319c-21.745-.1-212.427,398.581-232.489,408.611-22.841,11.42-192.374-251.921-192.374-251.921L543.189,603.2C557.07,626.144,590.718,625.6,603.692,602.02Z" transform="translate(352.848 7.563)" fill="#2a8871" opacity="0.41"/>
              <g id="Group_389" data-name="Group 389" transform="translate(186.803 1852.967)">
                <path id="Path_1188" data-name="Path 1188" d="M458.952,385.154c-24.451,50.08-140.667,75.39-140.667,75.39s-8.38,14.781,4.88,33.468c13.276,18.7,135.566,7.243,150.894,3.842s25.882-15.843,25.882-15.843,10.292,11.183,16.039,13.946,36.975-3.491,36.975-3.491c7.349-19.922.016-95.983-2.093-108.115Z" transform="translate(-315.674 -384.352)" fill="#2a8871"/>
              </g>
              <g id="Group_390" data-name="Group 390" transform="translate(575.061 1852.967)">
                <path id="Path_1189" data-name="Path 1189" d="M460.369,385.154c24.451,50.08,140.667,75.39,140.667,75.39s8.379,14.781-4.889,33.468-135.557,7.243-150.886,3.842-25.882-15.843-25.882-15.843-10.292,11.183-16.04,13.946-36.975-3.491-36.975-3.491c-7.35-19.922-.017-95.983,2.092-108.115Z" transform="translate(-363.167 -384.352)" fill="#2a8871"/>
              </g>
              <path id="Path_1190" data-name="Path 1190" d="M394.046,586.518l87.129,623.008-41.9.359c-25.857-134.16-116.257-582.722-112.9-610.844,3.9-33.566,189.635-320.035,195.35-329.559Z" transform="translate(-52.756 644.431)" fill="#067c60" opacity="0.32" style="mix-blend-mode: multiply;isolation: isolate"/>
            </g>
            <g id="Group_400" data-name="Group 400" transform="translate(321.097)">
              <g id="Group_393" data-name="Group 393" transform="translate(8.88)">
                <path id="Path_1191" data-name="Path 1191" d="M448.735,236.913c-15.443,12.328-52.762,38.6-52.762,38.6S358,249.5,342.3,237.011l-.122-90.17H448.735Z" transform="translate(-268.65 126.695)" fill="#ffb19e" fill-rule="evenodd"/>
                <path id="Path_1192" data-name="Path 1192" d="M448.739,146.841V184.56a84,84,0,0,1-106.552.433V146.841Z" transform="translate(-268.614 126.695)" fill="#ffb19e" fill-rule="evenodd"/>
                <path id="Path_1193" data-name="Path 1193" d="M341.736,328.629H581.149l3.695-66.651c52.925-22.391,13.227-148.6,13.227-148.6,3.057,30.534-79.388,31.547-111.957,26.462s-54.961,8.142-54.961,8.142S327.34,125.594,333.446,271.142A268.118,268.118,0,0,0,341.736,328.629Z" transform="translate(-333.187 -113.381)" fill="#2a8871" fill-rule="evenodd"/>
                <g id="Group_392" data-name="Group 392" transform="translate(0.457 98.836)">
                  <path id="Path_1194" data-name="Path 1194" d="M528.991,175.126V235.2a93.245,93.245,0,0,1-29.234,67.852c-3.05,2.706-6.107,5.641-9.271,8.576a83.969,83.969,0,0,1-115.055,0l-9.156-8.576a92.671,92.671,0,0,1-29.348-67.656V189.546s27.746-18.59,65.9-64.075C402.827,125.471,445.026,165.97,528.991,175.126Z" transform="translate(-306.805 -125.471)" fill="#ffb19e" fill-rule="evenodd"/>
                  <path id="Path_1195" data-name="Path 1195" d="M448.739,148.669v22.776a84,84,0,0,1-106.552.433V149.02A83.878,83.878,0,0,0,448.739,148.669Z" transform="translate(-269.072 40.975)" fill="#f48f7a" fill-rule="evenodd"/>
                  <path id="Path_1196" data-name="Path 1196" d="M387.213,182.834c18.6-29.79-12.769-61.157-42.567-42.575a18.416,18.416,0,0,0-5.8,5.8c-18.656,29.806,12.769,61.231,42.575,42.575A18.393,18.393,0,0,0,387.213,182.834Z" transform="translate(-333.243 -59.375)" fill="#ffb19e" fill-rule="evenodd"/>
                  <path id="Path_1197" data-name="Path 1197" d="M410.6,182.844c18.181-29.087-11.314-59.7-40.45-43.81a23.126,23.126,0,0,0-9.156,9.164c-15.892,29.136,14.723,58.623,43.81,40.442A18.249,18.249,0,0,0,410.6,182.844Z" transform="translate(-165.373 -59.377)" fill="#ffb19e" fill-rule="evenodd"/>
                </g>
              </g>
              <g id="Group_399" data-name="Group 399" transform="translate(0 23.773)">
                <path id="Path_1198" data-name="Path 1198" d="M569.862,251.405h-9.107V219.883c0-52.344-47.734-94.928-106.422-94.928h-4.488c-58.688,0-106.43,42.584-106.43,94.928v31.523h-9.1V219.883c0-57.119,51.821-103.594,115.529-103.594h4.488c63.7,0,115.529,46.475,115.529,103.594Z" transform="translate(-316.208 -116.289)" fill="#a76628"/>
                <g id="Group_398" data-name="Group 398" transform="translate(0 118.309)">
                  <g id="Group_396" data-name="Group 396">
                    <g id="Group_394" data-name="Group 394" transform="translate(220.406)">
                      <path id="Path_1199" data-name="Path 1199" d="M384.731,130.761h0a25.752,25.752,0,0,0-25.669,25.678v45.756a25.745,25.745,0,0,0,25.669,25.67h0a25.745,25.745,0,0,0,25.67-25.67V156.439A25.752,25.752,0,0,0,384.731,130.761Z" transform="translate(-359.062 -130.761)" fill="#ec8e34"/>
                      <path id="Path_1200" data-name="Path 1200" d="M368.954,130.761a25.272,25.272,0,0,0-7.693,1.316,25.686,25.686,0,0,1,17.969,24.361v45.756a25.676,25.676,0,0,1-17.969,24.353,25.025,25.025,0,0,0,7.693,1.316,25.745,25.745,0,0,0,25.67-25.67V156.439A25.752,25.752,0,0,0,368.954,130.761Z" transform="translate(-343.284 -130.761)" fill="#fa9457"/>
                    </g>
                    <g id="Group_395" data-name="Group 395">
                      <path id="Path_1201" data-name="Path 1201" d="M357.77,130.761h0A25.752,25.752,0,0,0,332.1,156.439v45.756a25.745,25.745,0,0,0,25.669,25.67h0a25.745,25.745,0,0,0,25.67-25.67V156.439A25.752,25.752,0,0,0,357.77,130.761Z" transform="translate(-332.101 -130.761)" fill="#ec8e34"/>
                      <path id="Path_1202" data-name="Path 1202" d="M341.993,130.761a25.271,25.271,0,0,0-7.693,1.316,25.686,25.686,0,0,1,17.969,24.361v45.756A25.676,25.676,0,0,1,334.3,226.548a25.023,25.023,0,0,0,7.693,1.316,25.745,25.745,0,0,0,25.669-25.67V156.439A25.752,25.752,0,0,0,341.993,130.761Z" transform="translate(-316.323 -130.761)" fill="#fa9457"/>
                    </g>
                  </g>
                  <g id="Group_397" data-name="Group 397" transform="translate(152.395 82.028)">
                    <path id="Path_1203" data-name="Path 1203" d="M354.008,184.539l-.327-5.1c29.275-1.856,54.413-38.275,54.666-38.643l4.227,2.886C411.495,145.267,385.744,182.528,354.008,184.539Z" transform="translate(-329.659 -140.795)" fill="#e5ad77"/>
                    <path id="Path_1204" data-name="Path 1204" d="M380.756,152.512c-.18-4.791-7.038-8.142-15.328-7.488s-14.862,5.068-14.682,9.851,7.039,8.142,15.328,7.488S380.928,157.294,380.756,152.512Z" transform="translate(-350.742 -111.04)" fill="#e5ad77"/>
                  </g>
                </g>
              </g>
            </g>
          </g>
          <g id="Group_402" data-name="Group 402" transform="translate(217.953 495.43)">
            <path id="Path_1205" data-name="Path 1205" d="M726.6,173.984H354.727c-20.233,0-36.069,17.511-35.21,38.75l9.753,239.356C330.055,471.35,346.3,487,365.379,487H715.955c19.072,0,35.316-15.655,36.1-34.915l9.753-239.356C762.675,191.495,746.832,173.984,726.6,173.984Z" transform="translate(-319.484 -173.984)" fill="#2a8871"/>
            <path id="Path_1206" data-name="Path 1206" d="M718.168,173.984H346.3a34.267,34.267,0,0,0-25.637,11.576,33.485,33.485,0,0,1,9.589-1.537H702.113c20.233,0,36.076,17.5,35.21,38.741L727.578,462.12a36.227,36.227,0,0,1-9.925,23.2,36.673,36.673,0,0,0,25.972-33.231l9.752-239.356C754.245,191.495,738.4,173.984,718.168,173.984Z" transform="translate(-311.053 -173.984)" fill="#61b4a0"/>
            <path id="Path_1207" data-name="Path 1207" d="M425.331,230.867A42.138,42.138,0,1,0,383.2,273.009,42.139,42.139,0,0,0,425.331,230.867Z" transform="translate(-164.712 -68.16)" fill="#9ccec2"/>
          </g>
        </g>
      </g>
    </g>
  </g>
</svg>
