<svg xmlns="http://www.w3.org/2000/svg" xmlns:xlink="http://www.w3.org/1999/xlink" width="3003.951" height="1838.309" viewBox="0 0 3003.951 1838.309">
  <defs>
    <clipPath id="clip-path">
      <path id="Path_153" data-name="Path 153" d="M445.2,363.188a124.87,124.87,0,1,0,124.869,124.87A124.87,124.87,0,0,0,445.2,363.188Zm0,191.019a66.149,66.149,0,1,1,66.149-66.149A66.149,66.149,0,0,1,445.2,554.207Z" transform="translate(-320.327 -363.188)" fill="none"/>
    </clipPath>
  </defs>
  <g id="Group_408" data-name="Group 408" transform="translate(-288.219 -181.274)">
    <g id="Group_84" data-name="Group 84" transform="translate(288.219 181.274)">
      <path id="Path_22" data-name="Path 22" d="M627.1,333.293c452.67-160.88,912.752-18.647,1224.784,291.143S2818.774,410.614,3166.074,719.9c237.016,211.071,97.161,913.351-227.83,1148.4-196.131,141.849-623.73,118.78-1061.91,120.149-549.265,1.717-1115.43.643-1267.245-60.312-466.591-187.34-2.978-534.257-220.778-866.815C131.36,668.979,427.059,404.389,627.1,333.293Z" transform="translate(-288.219 -191.675)" fill="#d4f4ed"/>
      <path id="Path_23" data-name="Path 23" d="M3186.918,2129.687c-226.593-11.078-997.423,7.687-1231.857,15.006s-506.556-9.653-647.91-34.607S348.72,2112.209,385.8,2179.3s364.045,30.013,734.831,56.979,1204.69-3.371,1392.793,0,360.591-6.742,603-20.224S3318.263,2136.107,3186.918,2129.687Z" transform="translate(-309.61 -409.24)" fill="#eafdf9"/>
      <g id="Group_46" data-name="Group 46" transform="translate(1962.419)">
        <path id="Path_24" data-name="Path 24" d="M2956.648,418.524a219.517,219.517,0,0,0,1.37-24.389c0-4.352-.143-8.669-.4-12.957l-40.3-13.039a177.125,177.125,0,0,0-14.271-48.286l26.723-32.883a217.879,217.879,0,0,0-21.169-30.771L2868.3,269.351a179.087,179.087,0,0,0-39.9-30.67l2.294-42.347a215.6,215.6,0,0,0-35.184-12.47l-24.889,34.345a179.235,179.235,0,0,0-50.316-1.319l-23.04-35.616a215.689,215.689,0,0,0-35.8,10.579l.053,42.41a178.77,178.77,0,0,0-41.468,28.525l-39.542-15.257a218.049,218.049,0,0,0-22.771,29.607l24.953,34.257a177.116,177.116,0,0,0-16.823,47.46l-40.927,10.891a218.971,218.971,0,0,0-1.372,24.389c0,4.352.144,8.669.4,12.957l40.3,13.039a177.152,177.152,0,0,0,14.271,48.286L2551.809,501.3a217.7,217.7,0,0,0,21.169,30.77l40.3-13.152a179.1,179.1,0,0,0,39.9,30.67l-2.292,42.347a215.55,215.55,0,0,0,35.185,12.47l24.889-34.346a179.164,179.164,0,0,0,50.314,1.318L2784.322,607a215.634,215.634,0,0,0,35.8-10.58l-.053-42.409a178.8,178.8,0,0,0,41.47-28.525l39.542,15.257a218.468,218.468,0,0,0,22.772-29.608L2898.9,476.875a177.169,177.169,0,0,0,16.824-47.46Zm-215.857,60.811a85.2,85.2,0,1,1,85.2-85.2A85.2,85.2,0,0,1,2740.791,479.335Z" transform="translate(-2523.565 -181.274)" fill="#ffcaad" opacity="0.5"/>
        <g id="Group_43" data-name="Group 43" transform="translate(329.044 160.55)">
          <path id="Path_25" data-name="Path 25" d="M2902.759,514.84a4.39,4.39,0,0,1-3.373-7.2,142.932,142.932,0,0,0,25.184-137.671,4.39,4.39,0,0,1,8.3-2.859,151.724,151.724,0,0,1-26.734,146.145A4.38,4.38,0,0,1,2902.759,514.84Z" transform="translate(-2898.372 -364.152)" fill="#fff"/>
        </g>
        <g id="Group_44" data-name="Group 44" transform="translate(266.071 70.165)">
          <path id="Path_26" data-name="Path 26" d="M2881.665,301.176a4.368,4.368,0,0,1-3.007-1.194,141.883,141.883,0,0,0-49.123-30.268,4.389,4.389,0,1,1,2.994-8.252,150.614,150.614,0,0,1,52.148,32.13,4.389,4.389,0,0,1-3.011,7.585Z" transform="translate(-2826.64 -261.197)" fill="#fff"/>
        </g>
        <g id="Group_45" data-name="Group 45" transform="translate(179.791 61.387)">
          <path id="Path_27" data-name="Path 27" d="M2732.747,264.445a4.39,4.39,0,0,1-1.071-8.646,152.072,152.072,0,0,1,37.186-4.6,4.39,4.39,0,0,1,0,8.779,143.247,143.247,0,0,0-35.037,4.332A4.378,4.378,0,0,1,2732.747,264.445Z" transform="translate(-2728.36 -251.199)" fill="#fff"/>
        </g>
      </g>
      <path id="Path_177" data-name="Path 177" d="M0,0H1357.638V815.465H0Z" transform="translate(690.624 0.62)" fill="#ffcaad" opacity="0.5"/>
      <rect id="Rectangle_53" data-name="Rectangle 53" width="1277.277" height="748.616" transform="translate(756.766 20.52)" fill="#fff"/>
      <g id="Group_49" data-name="Group 49" transform="translate(1521.536 367.698)">
        <path id="Path_28" data-name="Path 28" d="M2382.851,639.822c60.867-57.942,164.9-56.625,162.705,31.6s5.094,96.521,30.141,142.805c86.912,160.6-103.592,151.146-183.042,156.413s-72.866-144.416-58.82-227.377S2365.041,656.776,2382.851,639.822Z" transform="translate(-2058.46 -600.11)" fill="#303c60"/>
        <path id="Path_29" data-name="Path 29" d="M2412.25,1221.577c-19.515,163.88-54.973,285.023-58.925,362.715s-19.751,383.591-19.751,383.591,43.456-3.039,47.407-9.623,81.64-179.083,77.69-285.744,77.6-268.835,77.6-268.835l-19.657-159.121Z" transform="translate(-2059.483 -675.989)" fill="#eb8b51"/>
        <path id="Path_30" data-name="Path 30" d="M2436.736,1302.845l-30.519,12.77c-8.3,51.966-17.5,98.689-25.581,140.129,48.568,31.4,73.654,136.005,84.4,199.958,5.477-71.561,39.242-158.034,60.191-205.851Z" transform="translate(-2065.231 -685.911)" fill="#2a6456"/>
        <path id="Path_31" data-name="Path 31" d="M2586.951,1202.759s65.771,83.9,63.711,179.083c-3.14,144.9-18.942,186.266,8.551,338.2,10.739,59.339-23.7,253.448-23.7,253.448s-29.42,2.306-45.221-5.562c1.317-14.262-19.012-246.27-58.611-352.923-19.174-51.646-46.124-196.29-60.609-279.247s-17.119-100.076-11.851-100.076S2586.951,1202.759,2586.951,1202.759Z" transform="translate(-2074.521 -673.691)" fill="#eb8b51"/>
        <path id="Path_32" data-name="Path 32" d="M2171.641,925.949s2.927-43.414-1.756-56.823-45.066-25.115-45.066-25.115-1.756,62.039,2.341,69.648,28.094,29.263,28.094,29.263Z" transform="translate(-2033.951 -629.889)" fill="#f09959"/>
        <path id="Path_33" data-name="Path 33" d="M2401.318,901.313c-92.468,99.523-122.645,141.4-129.667,141.4-21.948-38.741-94.848-120.68-94.848-120.68l-31.085,19.982s71.83,187.673,117.481,189.612,138.439-64.719,139.618-72.375S2401.318,901.313,2401.318,901.313Z" transform="translate(-2036.548 -636.886)" fill="#a7e0d3"/>
        <path id="Path_34" data-name="Path 34" d="M2327.015,1121.9c45.231-18.414,97.059-56.933,97.937-62.643,1.178-7.655-1.5-157.94-1.5-157.94-20.16,21.7-37.757,40.94-53.029,57.769C2353.86,1020.77,2354.941,1087.937,2327.015,1121.9Z" transform="translate(-2058.684 -636.886)" fill="#99d0c3"/>
        <path id="Path_35" data-name="Path 35" d="M2523.858,826.678s88.483,44.353,107.8,122.861-37.834,175.5-44.857,227.264-168.548,60.867-168.548,5.46c0-53.117-40.47-165.869-38.188-194.59,5.36-67.389,103.869-149.94,103.869-149.94Z" transform="translate(-2065.149 -627.773)" fill="#a7e0d3"/>
        <path id="Path_36" data-name="Path 36" d="M2504.571,710.826l37.988,117.138s-40.56,31.3-109.977,106.6c2.7-50.105,44.674-104.726,44.674-104.726L2448.52,719.219Z" transform="translate(-2071.574 -613.628)" fill="#f09959"/>
        <path id="Path_37" data-name="Path 37" d="M2524.505,765.462l-17.719-54.636-56.05,8.393,28.735,110.617s-2.806,4.471-6.938,11.5C2499.6,821.244,2516.2,796.239,2524.505,765.462Z" transform="translate(-2073.79 -613.628)" fill="#e38540"/>
        <path id="Path_38" data-name="Path 38" d="M2475.893,729.4c-10.247,37.277-49.92,57.8-78.111,50.049s-34.225-40.833-23.981-78.109,41.406-61.215,69.6-53.466S2486.137,692.123,2475.893,729.4Z" transform="translate(-2063.826 -605.764)" fill="#f09959"/>
        <path id="Path_39" data-name="Path 39" d="M2410.883,1160.823c12.3,77.944-33.37,244.7-33.37,244.7s27.237,6.187,108.881-1.714,117.64-89.387,129.93-91.661,18.6,75.831,24.666,82,6.984-98.635-8.862-139.835c-28.094-73.038-22.594-104.018-12.093-148.269C2638.706,1027.37,2410.883,1160.823,2410.883,1160.823Z" transform="translate(-2064.85 -658.852)" fill="#a7e0d3"/>
        <path id="Path_40" data-name="Path 40" d="M2323.492,2027.978c7.352,29.879-7.163,53.574-26.593,70.847-15.8,14.047-64.379,20.014-62.039,27.038s59.7,9.25,79.012,6.322,24.581-12.29,48.621-12.278c15.758.01,18.683-12.81,11.66-28.65s-9.479-24.6-3.133-38.8S2323.492,2027.978,2323.492,2027.978Z" transform="translate(-2047.421 -774.448)" fill="#eb8b51"/>
        <path id="Path_41" data-name="Path 41" d="M2654.976,2024.955c-1.172,31.017-4.771,54.127,2.837,68.506,29.386,24.582,53.812,52.5,44.48,54.43-44.48,9.187-61.454-17.475-86.619-25.051-30.887-9.3,2.923-48.109-9.174-97.885-6.728-27.676,46.632-21.04,46.632-21.04Z" transform="translate(-2092.29 -771.425)" fill="#eb8b51"/>
        <path id="Path_42" data-name="Path 42" d="M2646.177,1255.261a146.2,146.2,0,0,0-6.638-25.426c-28.094-73.037-22.593-104.016-12.092-148.268a34.788,34.788,0,0,0,1.062-9.236c2.369-7.891,4.577-15.888,6.516-23.934l-9.533-86.073-68.747-81.645c-51.525,75.5-16.754,169.435-24.483,221.232s-94.063,117.839-94.063,117.839l2.811,18.378a46.663,46.663,0,0,0,52.483,39.214c35.581-4.937,82.258-14.86,103.029-34.135C2616.62,1224.554,2634.418,1238.986,2646.177,1255.261Z" transform="translate(-2072.26 -634.367)" fill="#99d0c3"/>
        <path id="Path_43" data-name="Path 43" d="M2452.137,1263.53s-38.112,10.664-42.669,13.05-7.075,14.981-7.075,14.981-21.815,18.942-13.457,25.652,23.281,23.69,43.011,15.789c12.112-4.85,21.5-49.35,29.442-49.707S2452.137,1263.53,2452.137,1263.53Z" transform="translate(-2066.01 -681.11)" fill="#f09959"/>
        <path id="Path_44" data-name="Path 44" d="M2567.85,869.342c40.791,1.155,77.771,74.62,90.659,138.357s26.454,154.349,26.454,154.349-67.6,53.351-134.393,68.943c-58.267,13.6-88.014,18.923-88.014,18.923l-11.821-33.266,139.411-81.886s-51.261-96.569-56.356-169.436S2536.85,868.464,2567.85,869.342Z" transform="translate(-2073.79 -632.979)" fill="#a7e0d3"/>
        <rect id="Rectangle_54" data-name="Rectangle 54" width="103.706" height="65.862" transform="translate(0 219.91) rotate(-11.346)" fill="#f5dc95"/>
        <path id="Path_45" data-name="Path 45" d="M2147.232,922.572c1.4-26.709-11.831-63.135-19.439-63.083s2.34,23.87-1.756,39.672C2123.817,907.724,2147.232,922.572,2147.232,922.572Z" transform="translate(-2033.998 -631.779)" fill="#f09959"/>
        <path id="Path_46" data-name="Path 46" d="M2382.965,658.138c2.259,73.159,87.709,67.55,111.118,63.038s-28.5,154.344,16.1,163.509c32.747,6.731,25.371-44.494,61.746-41.068,16.095,1.515,32.269,26.393,32.269,26.393s-2.421-15.326-14.711-26.393-44.514-78.96-52.984-127.537-65.826-80-82.8-80.967-58.528,18.343-58.528,18.343Z" transform="translate(-2065.515 -604.38)" fill="#303c60"/>
        <g id="Group_47" data-name="Group 47" transform="translate(418.56 114.658)">
          <path id="Path_47" data-name="Path 47" d="M2523.484,912.92a16.872,16.872,0,0,1-3.521-.376c-14.273-3.038-21.195-18.038-21.784-47.206-.5-25,3.63-57.087,8-91.058,1.77-13.725,3.6-27.918,5.1-41.66a2.139,2.139,0,0,1,4.253.466c-1.511,13.782-3.342,28-5.113,41.741-8.466,65.727-16.462,127.808,10.425,133.533a11.98,11.98,0,0,0,2.5.265c15.441,0,29.349-30.1,37.456-59.41a2.139,2.139,0,0,1,4.123,1.14C2559.581,869.7,2545.186,912.915,2523.484,912.92Z" transform="translate(-2498.137 -730.714)" fill="#303c60"/>
        </g>
        <g id="Group_48" data-name="Group 48" transform="translate(412.569 114.658)">
          <path id="Path_48" data-name="Path 48" d="M2516.939,929.925a16.859,16.859,0,0,1-12.64-5.62c-29.129-30.792-.33-185.287.913-191.849a2.139,2.139,0,1,1,4.2.794c-.3,1.586-29.649,158.9-2.01,188.114a12.758,12.758,0,0,0,11.625,4.141c15.128-2,23.86-22.521,31.565-40.628,7.474-17.566,14.5-34.155,27.025-33.718a2.139,2.139,0,1,1-.153,4.275c-.1,0-.2-.005-.307-.005-9.386,0-15.823,15.123-22.63,31.123-8.152,19.161-17.391,40.877-34.939,43.195A20.128,20.128,0,0,1,2516.939,929.925Z" transform="translate(-2491.313 -730.714)" fill="#303c60"/>
        </g>
        <path id="Path_49" data-name="Path 49" d="M2509.661,745.817c-6.021,7.761-15.457,10.518-21.074,6.159s-5.293-14.185.73-21.945,15.456-10.518,21.076-6.158S2515.685,738.057,2509.661,745.817Z" transform="translate(-2077.922 -614.968)" fill="#f09959"/>
      </g>
      <g id="Group_54" data-name="Group 54" transform="translate(973.714 699.495)">
        <path id="Path_50" data-name="Path 50" d="M1735.455,1051.126c20.861,41.717,3.593,89.754-37.438,106.727-41.3,17.084-86.458,7.38-107.318-34.335s-5.369-91.737,34.6-111.729S1714.593,1009.411,1735.455,1051.126Z" transform="translate(-1419.828 -981.166)" fill="#303c60"/>
        <g id="Group_50" data-name="Group 50" transform="translate(157.165 67.501)">
          <path id="Path_51" data-name="Path 51" d="M1622.384,1169.138c-4.6,0-13.68-1.628-25.218-11.866-9.468-8.4-16.263-21.276-19.139-36.261-3.629-18.915-1.266-40.659,7.025-64.628a2.139,2.139,0,1,1,4.042,1.4c-8.042,23.252-10.352,44.254-6.865,62.423,2.7,14.064,9.011,26.092,17.777,33.868,14.63,12.984,24.442,10.619,24.541,10.6a2.139,2.139,0,0,1,1.147,4.121A13.013,13.013,0,0,1,1622.384,1169.138Z" transform="translate(-1576.377 -1054.942)" fill="#303c60"/>
        </g>
        <g id="Group_53" data-name="Group 53" transform="translate(0 217.67)">
          <path id="Path_52" data-name="Path 52" d="M1699.744,1242.649c23.744,5.321,53.718,71.3,68.4,113.563,14.806,42.633,39.9,95.517,56.335,111.948s124.407,54.526,124.407,54.526-266.787.516-261.322-.011S1699.744,1242.649,1699.744,1242.649Z" transform="translate(-1432.777 -1228.03)" fill="#b6e5db"/>
          <path id="Path_53" data-name="Path 53" d="M1842.866,1501.491c-14.607-2.087-67.294,4.7-44.862-4.693s19.3-21.389,19.3-21.389-31.821,26.6-37.558,3.34c-4.948-20.059-6.841-90.881-25.62-161.864-15.515-35.2-35.818-70.408-52.9-74.236,0,0-.6,24.992-1.589,60.037,6.551,77.552,17.67,191.487,20.492,220.2,35.362.055,94.543,0,144.055-.066l32.928-1.569S1857.47,1503.578,1842.866,1501.491Z" transform="translate(-1434.262 -1228.03)" fill="#a7e0d3"/>
          <path id="Path_54" data-name="Path 54" d="M1588.661,1226s-75.524,42.2-93.128,51.173,49.324,272.39,64.206,283.677,145.926,1.944,160.846-12.28-11.448-57.873,1.462-145.27-39.379-162.851-46.1-162.681S1625.392,1226,1625.392,1226Z" transform="translate(-1408.983 -1225.996)" fill="#b6e5db"/>
          <path id="Path_55" data-name="Path 55" d="M1559.772,1568.5c14.885,11.287,108.656,11.542,148.571-.878,4.506-1.4,24.961-9.552,25.44-17.214-4.818-.906-23.943,1.393-31.708-.392-27-6.2-41.863-39.644-41.863-39.644s-14.867-5.349-48.121-19.433-19.562-56.729-20.344-75.508-32.865-80.2-93.115-126.76l-5.528,2.475C1488.806,1333.954,1546,1558.056,1559.772,1568.5Z" transform="translate(-1409.016 -1233.648)" fill="#a7e0d3"/>
          <g id="Group_52" data-name="Group 52" transform="translate(294.069 127.425)">
            <path id="Path_56" data-name="Path 56" d="M2123.3,1372.006H1941.448l-82.823,176.253h200.313l74.973-159.546A11.722,11.722,0,0,0,2123.3,1372.006Z" transform="translate(-1747.742 -1371.247)" fill="#53c4af"/>
            <g id="Group_51" data-name="Group 51">
              <path id="Path_57" data-name="Path 57" d="M1854.039,1550.655H1744.612a12.291,12.291,0,0,1,0-24.581H1846.2l68.683-147.818a12.291,12.291,0,0,1,22.292,10.358l-71.987,154.93A12.29,12.29,0,0,1,1854.039,1550.655Z" transform="translate(-1732.321 -1371.142)" fill="#2a6456"/>
            </g>
          </g>
          <path id="Path_58" data-name="Path 58" d="M1652.973,1532.736c47.47,8.869,59.145,19.768,85.021,23.938,29.334,4.728,25.845,11.21,4.059,11.21s-76.536.847-95.327-3.327S1652.973,1532.736,1652.973,1532.736Z" transform="translate(-1426.948 -1263.448)" fill="#f09959"/>
          <path id="Path_59" data-name="Path 59" d="M1477.97,1289.282c-36.383,116.323-87.958,248.318-79.743,248.318s217.122,8.445,225.34,1.411,5.869-34.028,4.7-37.549-118.767-24.39-118.767-24.39,15.484-30.179,21.354-89.156S1484.869,1267.221,1477.97,1289.282Z" transform="translate(-1397.354 -1233.164)" fill="#b6e5db"/>
        </g>
        <path id="Path_60" data-name="Path 60" d="M1629.452,1110.857l-29.307,107.1s49.523,77.3,63.137,70.432-7.61-62.829-7.61-70.432,21.226-86.067,21.226-86.067Z" transform="translate(-1422.114 -994.269)" fill="#f09959"/>
        <path id="Path_61" data-name="Path 61" d="M1659.416,1223.411a28.582,28.582,0,0,1-1.017-5.458c0-7.6,21.226-86.067,21.226-86.067l-47.446-21.029-9.7,35.439C1630.952,1182.907,1646.236,1207.289,1659.416,1223.411Z" transform="translate(-1424.841 -994.269)" fill="#e38540"/>
        <path id="Path_62" data-name="Path 62" d="M1743.772,1102.2c5.582,31.055,1.9,72.3-25.673,82.788s-60.795-9.576-74.194-44.811-1.906-72.3,25.672-82.79S1737.1,1065.1,1743.772,1102.2Z" transform="translate(-1426.774 -987.381)" fill="#f09959"/>
        <path id="Path_63" data-name="Path 63" d="M1647.872,1126.637c3.866,10.857.508,21.968-7.5,24.818s-17.63-3.639-21.495-14.5-.508-21.968,7.5-24.818S1644.008,1115.78,1647.872,1126.637Z" transform="translate(-1424.205 -994.343)" fill="#f09959"/>
        <path id="Path_64" data-name="Path 64" d="M1741.252,1060.983c-9.39,72.875-97.929,63.486-97.929,63.486s-18.261-24.006-26.478-11.416,11.4-73.883,62.2-76.608C1695.742,1035.55,1741.252,1060.983,1741.252,1060.983Z" transform="translate(-1423.932 -985.18)" fill="#303c60"/>
        <ellipse id="Ellipse_18" data-name="Ellipse 18" cx="47.955" cy="44.992" rx="47.955" ry="44.992" transform="translate(131.419)" fill="#303c60"/>
      </g>
      <g id="Group_57" data-name="Group 57" transform="translate(1057.571 1204.063)">
        <g id="Group_56" data-name="Group 56" transform="translate(0 20.402)">
          <path id="Path_65" data-name="Path 65" d="M1492.874,2130.309h10.965l70.81-328.076h-24.125Z" transform="translate(-1492.874 -1603.652)" fill="#309d89"/>
          <path id="Path_66" data-name="Path 66" d="M1868.233,2128.7h-10.966l-82.408-339.675h24.125Z" transform="translate(-1527.303 -1602.039)" fill="#309d89"/>
          <g id="Group_55" data-name="Group 55" transform="translate(6.188)">
            <path id="Path_67" data-name="Path 67" d="M1618.85,1786.905c-43.927,0-71.757-7.89-89.517-25.189-22.015-21.448-26.57-54.667-26.636-97.949-.053-34.064-.863-56.249-2.709-74.181a12.291,12.291,0,1,1,24.454-2.516c1.934,18.8,2.782,41.725,2.836,76.659.067,43.866,5.631,67.153,19.208,80.378,13.926,13.567,39.109,19.164,81.627,18.1,41.06-1.013,69.323-6.758,92.033-11.373,29.869-6.07,51.451-10.458,77.042,1.771a12.291,12.291,0,1,1-10.6,22.18c-18.166-8.68-33.574-5.547-61.549.137-23.656,4.809-53.1,10.792-96.321,11.86Q1623.656,1786.906,1618.85,1786.905Z" transform="translate(-1499.922 -1576.034)" fill="#309d89"/>
          </g>
        </g>
        <path id="Path_68" data-name="Path 68" d="M1521.713,1574.38l67.239,2.8-17.9,185.647s-50.121-31.993-49.339-66.421S1521.713,1574.38,1521.713,1574.38Z" transform="translate(-1496.394 -1555.43)" fill="#309d89"/>
        <path id="Path_69" data-name="Path 69" d="M1898.5,1593.585c56.859-8.626,76.18-5.908,110.976,58.851s81.114,181.355,107.751,196.416c40.111,22.677,53.4,78.281,69.869,75.781s27.069,4.781,9.149,19.675-46.862,27.576-56.76,24.932-17.57-45.4-43.419-59.286-18.081-25.289-16.384-37.571-75.45-68.823-133.6-139.142c-35.535-42.968-53.834-71.33-56.546-97.033S1898.5,1593.585,1898.5,1593.585Z" transform="translate(-1541.255 -1557.342)" fill="#f09959"/>
        <path id="Path_70" data-name="Path 70" d="M2039.454,1828.405c-13.206-33.5-26.448-88.791-38.9-139.481-17.707-72.086-36.264-89.2-48.022-96.892-14.214-3.562-31.057-1.932-54.03,1.553,0,0-11.68,16.918-8.967,42.622s21.011,54.066,56.546,97.034c30.619,37.026,66.5,70.227,93.371,95.165Z" transform="translate(-1541.255 -1557.342)" fill="#e38540"/>
        <path id="Path_71" data-name="Path 71" d="M1911.868,1650.583s-15.13,114.144-29.214,125.744c-10.076,8.3-17.214,8.85-24.257-25.192s10.955-161.1,10.955-161.1Z" transform="translate(-1537.303 -1557.342)" fill="#309d89"/>
        <path id="Path_72" data-name="Path 72" d="M1886.328,1715.163l-140.007,23.526,79.044-113.338,60.156-12.249,36.073,8.3Z" transform="translate(-1523.819 -1560.159)" fill="#f09959"/>
        <path id="Path_73" data-name="Path 73" d="M2105.791,1911.651c-4.538,18.294-3.99,31.814,3.894,38.588s37.686,57.127,37.686,57.127l9.283-1.408-21.492-46.072Z" transform="translate(-1567.36 -1596.61)" fill="#309d89"/>
        <path id="Path_74" data-name="Path 74" d="M2165.657,2008.39c9.9,2.643,38.838-10.037,56.758-24.932s7.32-22.173-9.148-19.675a7.128,7.128,0,0,1-2.761-.136c-8.225,18.374-35.279,32.157-44.009,12.746-8.653-19.233-45.722-57.519-60.654-65.714a3.351,3.351,0,0,1,.01.854c-1.7,12.281-9.462,23.686,16.385,37.57S2155.76,2005.746,2165.657,2008.39Z" transform="translate(-1567.422 -1596.492)" fill="#309d89"/>
        <path id="Path_75" data-name="Path 75" d="M1570.973,1598.609c-49.674,89.143-15.742,145.8,44.632,151.573s155.682-5.25,211.238-51.416,101.16-94.98,94.79-102.263S1570.973,1598.609,1570.973,1598.609Z" transform="translate(-1499.489 -1557.794)" fill="#e38540"/>
        <path id="Path_76" data-name="Path 76" d="M1893.633,1667.486c10.172-30.516,21.9-53.928,44.6-54.353,23.868-.447,38.553,11.972,39.573,51.024,1.215,46.5,2.852,200.505.7,268.979-1.625,51.833,13.483,68.433,12.206,122.469-.961,40.7,42.427,20.139,25.667,41.245-11.525,14.513-45.833,9.769-66.907,7.087-18.776-2.388,9.72-58.659-16.269-73.706-22.3-12.91-22.737-33.871-8.654-49.738s1.567-62.816-7.823-95.679-23.954-68.42-33.518-146.125C1880.484,1716.54,1887.421,1686.125,1893.633,1667.486Z" transform="translate(-1540.459 -1560.161)" fill="#f09959"/>
        <path id="Path_77" data-name="Path 77" d="M2006.045,2131.184c-7.188,2.192-16.051,4.61-23.772,4.866-15.65.521-20.344-16.694-21.388-40.078-.911-20.419-15.742-52.573-30.949-65.612-.28.372-.566.735-.872,1.079-14.083,15.865-13.647,36.828,8.654,49.737,25.988,15.046-2.507,71.318,16.269,73.7,21.074,2.681,55.382,7.428,66.907-7.086C2031.784,2134.077,2018.266,2132.986,2006.045,2131.184Z" transform="translate(-1544.968 -1611.103)" fill="#309d89"/>
        <path id="Path_78" data-name="Path 78" d="M1931.5,2024.963s-22.822,23.834-20.734,33.745,9.123,34.952,10.3,54.252,2.218,41.458,2.218,41.458,8.217,0,8.869-2.333,5.217-78.452,5.217-78.452Z" transform="translate(-1543.881 -1610.445)" fill="#309d89"/>
        <path id="Path_79" data-name="Path 79" d="M1545.511,1590.034s-29.464,125.039,7.761,159.7,191.8,3.482,228.212,1.406c24.648-1.406,48.514,28.677,48.514,28.677s-17.214-69.762-5.478-126.1,30.678-60.127,30.678-60.127l-25.2-3.551Z" transform="translate(-1497.95 -1557.342)" fill="#53c4af"/>
        <path id="Path_80" data-name="Path 80" d="M1538.56,1552.8c12.6,26.729-13.562,72.9-4.392,86.2s61.658,1.863,96.054-25.821,99.5-33.772,99.5-33.772Z" transform="translate(-1497.672 -1552.795)" fill="#b6e5db"/>
        <path id="Path_81" data-name="Path 81" d="M1594.939,1807.379c104.073,3.911,213.619,2.063,213.619-13.445s-4.7-26.462-85.29-20.2-135.368,14.867-159.624,9.391S1594.939,1807.379,1594.939,1807.379Z" transform="translate(-1500.767 -1579.552)" fill="#309d89"/>
      </g>
      <rect id="Rectangle_55" data-name="Rectangle 55" width="1488.953" height="28.332" rx="12.91" transform="translate(783.92 1221.602)" fill="#309d89"/>
      <g id="Group_62" data-name="Group 62" transform="translate(1812.935 737.52)">
        <path id="Path_82" data-name="Path 82" d="M3072.1,1133.049c10.083,35.544-14.541,72.173-41.665,79.868s-46.483-16.458-56.566-52,3.734-70.6,30.861-78.29S3062.013,1097.505,3072.1,1133.049Z" transform="translate(-2428.658 -1028.661)" fill="#f09959"/>
        <path id="Path_83" data-name="Path 83" d="M2908.61,1924.823s69.521,107.975,78.911,112.67,32.862,5.868,24.061,23.472-12.325,86.851-20.541,90.372-78.635,11.737-68.072,0,17.06-5.869,22.389-26.994,12.819-61.03,2.843-69.245-71-82.156-71-82.156Z" transform="translate(-2417.259 -1131.674)" fill="#f09959"/>
        <path id="Path_84" data-name="Path 84" d="M2494.748,1977.643s-84.506,139.279-100.156,151.8-67.293,31.3-25.039,34.429,62.6-14.084,89.2-21.909,59.467-12.52,46.948-32.864-7.318-64.757,19.669-92.927S2494.748,1977.643,2494.748,1977.643Z" transform="translate(-2353.292 -1138.124)" fill="#f09959"/>
        <path id="Path_85" data-name="Path 85" d="M2940.68,1609.736s-209.2-5.47-292.139,62.6c-48.51,73.552-165.874,290.572-175,314.487,6.26,6.26,41.472,17.554,57.12,15.99,46.167-55.046,107.187-102.635,131.456-145.814,29.907-53.208,39.123-79.812,87.638-84.506s158.059-20.344,190.921-20.344S2940.68,1609.736,2940.68,1609.736Z" transform="translate(-2367.974 -1093.191)" fill="#3a8674"/>
        <path id="Path_86" data-name="Path 86" d="M3200.987,2144.571H3190.02l-78.633-328.077h24.122Z" transform="translate(-2445.851 -1118.448)" fill="#309d89"/>
        <path id="Path_87" data-name="Path 87" d="M2839.274,2142.959h10.965l90.233-339.676h-24.125Z" transform="translate(-2412.627 -1116.835)" fill="#309d89"/>
        <path id="Path_88" data-name="Path 88" d="M3084.2,1593.429l-121.626,20.992s-161.624,1.485-235.505,15.246c-67.213,12.52-77.119,88.89,0,194.054,43.808,59.738,80.848,107.391,156.6,161.121,19.266-14.146,26.639-19.5,31.964-53.536-5.483-7.516-19.675-54.562-24.077-63.769-41.9-87.579-97.819-119.427-98.595-128.043,9.39-15.257,248.71,79.53,296.294,23.771C3134.681,1710.032,3084.2,1593.429,3084.2,1593.429Z" transform="translate(-2392.312 -1091.213)" fill="#53c4af"/>
        <path id="Path_89" data-name="Path 89" d="M3125.575,1279.593c-32.034-4.5-64.658,1.593-95.168,23.682-26.662,27.177-56.829,72-54.983,145.926,2.348,93.893-14.528,99.922,3.076,125.742,73.427,30.321,199.007,160.6,169.433,20.932-21.413-101.129,46.964-176.509-8.2-288.685C3135.246,1298.06,3129.636,1289.2,3125.575,1279.593Z" transform="translate(-2428.636 -1052.726)" fill="#f37168"/>
        <path id="Path_90" data-name="Path 90" d="M2975.406,1487.8c-1.428,48.949-8.34,63.37-3.055,78.715,29.935,3.056,84.69,15.034,98.373,34.19,15.648,21.91,31.3,25.04,24,8.869s-26.606-39.124,3.129-117.893,43.818-131.977,14.606-186.75Z" transform="translate(-2428.636 -1055.988)" fill="#d54a41"/>
        <path id="Path_91" data-name="Path 91" d="M3133.92,1265.994c-19.724-46.693-24.568-99.157-24.568-99.157l-51.639,15.257s29.338,65.725,1.17,89.2a269.684,269.684,0,0,0-20.129,18.385C3069.265,1267.589,3101.889,1261.5,3133.92,1265.994Z" transform="translate(-2436.983 -1039.127)" fill="#f09959"/>
        <path id="Path_92" data-name="Path 92" d="M3113.556,1179.656c-3.058-2.721-6.884-6.119-10.906-9.672l-42.123,12.446c-.028.077-.058.152-.089.229,1.018,2.327,11.745,27.361,13.159,51.443,12.554-7.615,26.295-20.034,42.009-41.722C3114.754,1187.566,3114.081,1183.274,3113.556,1179.656Z" transform="translate(-2439.633 -1039.512)" fill="#e38540"/>
        <path id="Path_93" data-name="Path 93" d="M3062.171,1296.308c-53.189,18.6-47.289,74.633-96.239,157.269-25.335,42.766-48.862,42.131-48.862,42.131A1133.568,1133.568,0,0,1,2785.8,1487.4c-45-5.5-47.856,7.893-16.56,19.082,63.121,22.569,128.625,46.859,181.438,40.992s143.145-140.623,147.8-175.7C3104.918,1323.256,3088.958,1286.941,3062.171,1296.308Z" transform="translate(-2401.537 -1054.755)" fill="#f09959"/>
        <g id="Group_58" data-name="Group 58" transform="translate(447.645 358.694)">
          <path id="Path_94" data-name="Path 94" d="M3048.8,1781.592q-4.948,0-10.145-.128c-43.227-1.067-72.667-7.052-96.322-11.86-27.973-5.686-43.384-8.817-61.548-.138a12.29,12.29,0,1,1-10.6-22.178c25.591-12.23,47.174-7.844,77.041-1.773,22.709,4.615,50.973,10.36,92.034,11.374,46.238,1.145,74.524-5.788,88.975-21.813,12.906-14.311,16.705-38.167,11.96-75.078-1.607-12.5-3.214-22.9-4.633-32.066-3.979-25.731-6.608-42.731-3.363-68.937,3.027-24.429,11.132-57.021,29.91-120.252a12.289,12.289,0,1,1,23.561,7c-35.118,118.276-33.332,129.825-25.817,178.436,1.441,9.315,3.074,19.875,4.721,32.688,5.728,44.556-.017,74.639-18.085,94.675C3127.873,1772.185,3097.513,1781.592,3048.8,1781.592Z" transform="translate(-2863.193 -1429.947)" fill="#309d89"/>
        </g>
        <path id="Path_95" data-name="Path 95" d="M2500.493,2111.357c-56.073,27.423-86.253,43.137-104.23,41.641-4.243-.355-7.76-.788-10.708-1.247-20,11.82-51.918,25.784-16,28.446,42.252,3.129,62.6-14.085,89.2-21.91s59.468-12.52,46.949-32.864A42.812,42.812,0,0,1,2500.493,2111.357Z" transform="translate(-2353.291 -1154.45)" fill="#d54a41"/>
        <path id="Path_96" data-name="Path 96" d="M2999.85,2055.773c-1.372,44.4-7.472,88.388-34.627,96.7a45.613,45.613,0,0,1-19.564,1.745c-4.268,5.281-9.479,5.341-16.474,13.111-10.562,11.736,59.856,3.521,68.072,0s11.737-72.767,20.541-90.373C3025.027,2062.494,3010.479,2059.12,2999.85,2055.773Z" transform="translate(-2423.476 -1147.663)" fill="#d54a41"/>
        <g id="Group_59" data-name="Group 59" transform="translate(97.972 307.069)">
          <path id="Path_97" data-name="Path 97" d="M2727.309,1550.655H2549.172a12.3,12.3,0,0,1-11.149-7.111l-71.987-154.929a12.292,12.292,0,0,1,22.294-10.359l68.683,147.818h170.3a12.291,12.291,0,0,1,0,24.582Z" transform="translate(-2464.89 -1371.141)" fill="#53c4af"/>
        </g>
        <path id="Path_98" data-name="Path 98" d="M2784.225,1513.278c-35.993-.521-71.69-21.975-89.427-18.844s-75.64,43.3-68.335,44.86,53.207-22.228,54.772-22.59,11.475,16.479,35.993,22.665.176-18.374,76.173,4.578C2842.817,1558.871,2784.225,1513.278,2784.225,1513.278Z" transform="translate(-2386.567 -1079.088)" fill="#f09959"/>
        <path id="Path_99" data-name="Path 99" d="M3124.179,1231.247l5.3,42.613s-46.573,2.771-69.753,15.812-57.382,50.72-57.382,50.72l27.944-48.111,4.025-30.778Z" transform="translate(-2432.538 -1046.991)" fill="#f2e5de"/>
        <path id="Path_100" data-name="Path 100" d="M3080.813,1290.549c-34.6-6.483-50.6,24.517-73.031,75.117s-60.722,112.057-68.335,119.98-128.327,0-128.327,0-3.65,34.95,0,39.122,24.519,3.652,24.519,3.652,8.346,6.664,16.17,11.94,74.074,15.186,104.853,13.621,58.945-4.174,63.118-8.868,88.16-134.064,93.376-180.49S3098.468,1293.857,3080.813,1290.549Z" transform="translate(-2408.992 -1054.128)" fill="#f2e5de"/>
        <path id="Path_101" data-name="Path 101" d="M2994.584,1044.954c-65.428,3.13-55.167,101.561-55.167,101.561s16.994,5.246,52.6-.623c-2.736-10.563-1.564-37.558-1.564-37.558s4.136,21.909,9.39,35.211c7.525,3.451,16.04.392,30.516-3.107,7.435,31.276,28.438,44.491,42.821,49.013,15.892,5,32.711,10.954,51.491,1.564s8.452-105.372-1.52-124.674c-14.967-28.972-39.845-54.9-82.88-41.211C3018.683,1032,2994.584,1044.954,2994.584,1044.954Z" transform="translate(-2424.783 -1021.366)" fill="#303c60"/>
        <path id="Path_102" data-name="Path 102" d="M3131.946,1180.415l26.751,39.071s-29.647,74.074,56.578,107.634c67.529,26.283,59.574,72.593,29.059,119.166s18.258,87.243,18.258,87.243,7.437-51.591,73.049-61.329c89.461-13.277,114.793-133.39,47.971-193.446-55.293-49.7-72.115-8.542-109.545-53.14s-108.085-14.474-108.085-14.474l-25.9-37.767Z" transform="translate(-2448.362 -1039.926)" fill="#303c60"/>
        <g id="Group_60" data-name="Group 60" transform="translate(715.481 154.442)">
          <path id="Path_103" data-name="Path 103" d="M3418.828,1402.426a2.138,2.138,0,0,1-1.875-3.166c22.548-41.208,4.148-91.134-5.1-104.658-.978-1.429-1.9-2.876-2.885-4.409-9.1-14.2-20.419-31.868-80.756-42.732-14.456-2.6-26.179-11.208-38.593-20.319-25.738-18.9-54.916-40.313-118.3-11.141a2.139,2.139,0,1,1-1.789-3.886c65.675-30.225,95.928-8.016,122.621,11.578,12,8.81,23.339,17.133,36.816,19.559,62.177,11.193,74.056,29.736,83.6,44.634.964,1.5,1.873,2.925,2.814,4.3,5.577,8.149,12.465,25.03,15.284,44.37,2.447,16.773,2.7,41.623-9.953,64.758A2.142,2.142,0,0,1,3418.828,1402.426Z" transform="translate(-3168.28 -1197.287)" fill="#303c60"/>
        </g>
        <g id="Group_61" data-name="Group 61" transform="translate(599.631 87.698)">
          <path id="Path_104" data-name="Path 104" d="M3105.981,1213.848a93.758,93.758,0,0,1-13.857-1.118c-22.806-3.416-53.4-16.385-55.8-89.261a2.137,2.137,0,0,1,2.067-2.207,2.107,2.107,0,0,1,2.208,2.067c.994,30.165,6.985,52.491,17.807,66.359,8.237,10.556,19.154,16.534,34.358,18.812,21.3,3.189,35.414-.76,41.975-11.741a2.139,2.139,0,0,1,3.672,2.2C3132.485,1208.862,3121.607,1213.848,3105.981,1213.848Z" transform="translate(-3036.318 -1121.26)" fill="#303c60"/>
        </g>
      </g>
      <g id="Group_66" data-name="Group 66" transform="translate(277.928 744.418)">
        <path id="Path_105" data-name="Path 105" d="M767.1,1285.624c-75.942,43.425-181.571,223.933-159.271,253.391s142.011-48,142.011-48Z" transform="translate(-604.801 -1060.529)" fill="#99d0c3"/>
        <path id="Path_106" data-name="Path 106" d="M931.651,1044.985c-29-.789-18.239-22.342-51.585-13.736-17.532,4.524-4.59,11.737-27.366,9.39s-33.984-4.695-36.854,10.172-4.26,19.562-15.214,21.909-15.9,21.909,0,35.211,8.172,18.78,4.65,29.733,8.482,11.738,15,21.911-6,12.1,3.388,20.914,22.56,8.037,22.56,8.037l39.529-75.788Z" transform="translate(-627.471 -1029.223)" fill="#303c60"/>
        <path id="Path_107" data-name="Path 107" d="M1617.523,2078.939s42.251,1.174,75.113-11.737,55.162-32.862,49.294-9.391-32.863,63.746-56.336,67.67-31.688,29.744-44.6,29.744-31.689-29.744-64.551-44.609C1546.495,2097.065,1617.523,2078.939,1617.523,2078.939Z" transform="translate(-722.535 -1153.483)" fill="#309d89"/>
        <path id="Path_108" data-name="Path 108" d="M1237.637,2074.98a162.483,162.483,0,0,0,48.693,41.547c31.939,17.605,68.789,26.083,45.941,34.042s-56.253,14.152-88.839,4.691c-22.855-6.641-49.649-8.03-56.727-18.827s8.331-37.914,1.92-78.444C1183.489,2025.522,1237.637,2074.98,1237.637,2074.98Z" transform="translate(-675.616 -1153.483)" fill="#309d89"/>
        <path id="Path_109" data-name="Path 109" d="M1011.071,1630.224s244.756,91.644,264.476,117.264,276.994,259,276.994,276.213-43.818,48.513-43.818,48.513-220.656-135.368-275.43-204.225-188.452-102.054-259.521-108.43S1011.071,1630.224,1011.071,1630.224Z" transform="translate(-646.901 -1102.604)" fill="#2a6456"/>
        <path id="Path_110" data-name="Path 110" d="M1002.442,1629.837s167.45-6.26,203.443,0,114.944,6.188,63.3,151.929c-40.476,114.232-53.836,258.859-53.836,258.859l-80.477,19.77s3.192-260.061,41.594-329.307c-27.966,4.61-79.3,13.6-150.439,33.949-131.976,37.741-204.337,18.842-204.337,18.842l-19.65-68.858Z" transform="translate(-628.883 -1102.217)" fill="#eb8b51"/>
        <path id="Path_111" data-name="Path 111" d="M865.341,1137.762l-40.915,120.886,51.689,34.035,29.292-104.455Z" transform="translate(-631.616 -1042.476)" fill="#a86b48"/>
        <path id="Path_112" data-name="Path 112" d="M884.347,1276.2l24.669-87.972-40.067-50.467-14.967,44.217C859.148,1221.915,871.627,1254.95,884.347,1276.2Z" transform="translate(-635.224 -1042.476)" fill="#7a4e34"/>
        <path id="Path_113" data-name="Path 113" d="M975.4,1152.484c1.327,36.766-16.733,68.588-45.439,71.418s-54.9-24.556-58.512-61.168,16.733-68.59,45.438-71.42S973.3,1094.464,975.4,1152.484Z" transform="translate(-637.306 -1036.736)" fill="#a86b48"/>
        <path id="Path_114" data-name="Path 114" d="M792.407,1271.449c-125.589,84.816-47.476,221.877-19.9,322.035,23.489,85.308,22.724,136.863,26.244,136.863s89.894-12.91,139.188-57.509a755.247,755.247,0,0,0,82.618-87.8s-63.152-11.247-83.792-92.945c-10.478-41.477-5.714-64-29.6-129.719S792.407,1271.449,792.407,1271.449Z" transform="translate(-619.247 -1058.799)" fill="#a7e0d3"/>
        <path id="Path_115" data-name="Path 115" d="M802.043,1266.872l13.451-32.913s42.646,28.169,59.664,41.471,27.516,16.432,27.516,16.432,6.152,47.18,2.156,42.9C854.5,1280.816,802.043,1266.872,802.043,1266.872Z" transform="translate(-628.883 -1054.221)" fill="#a7e0d3"/>
        <g id="Group_64" data-name="Group 64" transform="translate(91.584 397.489)">
          <path id="Path_116" data-name="Path 116" d="M738.642,2144.571h10.966l78.634-328.077H804.117Z" transform="translate(-712.726 -1522.836)" fill="#309d89"/>
          <path id="Path_117" data-name="Path 117" d="M1098.741,2142.959h-10.966l-90.232-339.676h24.124Z" transform="translate(-744.337 -1521.222)" fill="#309d89"/>
          <g id="Group_63" data-name="Group 63">
            <path id="Path_118" data-name="Path 118" d="M857.194,1787.944c-43.927,0-71.757-7.891-89.516-25.19-22.015-21.446-26.571-54.667-26.637-97.949-.138-90.991-5.17-109.806-30.788-165.371a12.291,12.291,0,1,1,22.323-10.292c27.077,58.733,32.9,80.322,33.046,175.624.067,43.867,5.632,67.154,19.208,80.379,13.927,13.567,39.1,19.158,81.627,18.1,41.059-1.014,69.323-6.758,92.032-11.374,29.869-6.071,51.452-10.457,77.043,1.774a12.29,12.29,0,1,1-10.6,22.177c-18.165-8.678-33.574-5.547-61.549.139-23.657,4.807-53.1,10.792-96.322,11.858Q862,1787.943,857.194,1787.944Z" transform="translate(-709.122 -1481.994)" fill="#309d89"/>
          </g>
        </g>
        <g id="Group_65" data-name="Group 65" transform="translate(591.887 298.751)">
          <path id="Path_119" data-name="Path 119" d="M1469.432,1549.037H1291.3a12.29,12.29,0,1,1,0-24.581H1461.59l68.683-147.819A12.29,12.29,0,0,1,1552.565,1387l-71.987,154.93A12.291,12.291,0,0,1,1469.432,1549.037Z" transform="translate(-1279.005 -1369.524)" fill="#2a6456"/>
        </g>
        <path id="Path_120" data-name="Path 120" d="M807.34,1395.676s31.3,95.462,70.031,134.976,116.68,52.79,141.086,51.24c-19.457-7.823-56.508-30.082-71.408-89.06-10.478-41.476-5.715-63.995-29.6-129.719-17.732-48.79-72.366-75.243-99.349-85.64,33.679,24.191,75.788,64.026,88.728,94.339C921.191,1405.457,807.34,1395.676,807.34,1395.676Z" transform="translate(-629.53 -1059.533)" fill="#99d0c3"/>
        <path id="Path_121" data-name="Path 121" d="M1296.556,1504.422s53.989-24.645,59.856-22.3,65.724,38.489,65.724,44.478-52.814-22.318-52.814-22.318,5.869,15.645,2.348,23.151-44.12,7.5-80.742,5.156S1296.556,1504.422,1296.556,1504.422Z" transform="translate(-686.751 -1084.502)" fill="#a86b48"/>
        <path id="Path_122" data-name="Path 122" d="M808.069,1327.323c-49.766,102,120.949,205.4,222.227,214.6s221.61-23.951,221.61-23.951l-13.568-33.113s-202.9-26.482-208.042-30.193S826.3,1289.965,808.069,1327.323Z" transform="translate(-628.533 -1064.934)" fill="#a7e0d3"/>
        <path id="Path_123" data-name="Path 123" d="M878.3,1139.353c4.614,12.13,1.231,24.673-7.554,28.013s-19.646-3.785-24.259-15.916-1.23-24.672,7.554-28.013S873.687,1127.222,878.3,1139.353Z" transform="translate(-634.058 -1040.626)" fill="#a86b48"/>
        <path id="Path_124" data-name="Path 124" d="M974.327,1051.593c13.752-5.738,29.237-11.886,24.444,11.477-2.086,10.171,0,7.3,3.652,16.692s-9.2,16.762-13.377,21.98,6.074,10.883-2.272,17.143-19.35-2.32-27.126,0c-23.213,6.927-20.344-11.33-33.385-15.128s-19.434-3.212-21.91,5.135,9.129,35.815-.782,33.207-12.143,19.562-14.809,32.08-9.467-8.641-9.027-22.962c.675-21.964-4.778-31.192-12.868-37.338s-11.536-62.027,27.588-64.113,39.373-5.861,56.066-9.39S968.06,1054.208,974.327,1051.593Z" transform="translate(-636.167 -1030.528)" fill="#303c60"/>
      </g>
      <g id="Group_67" data-name="Group 67" transform="translate(2635.266 1303.738)">
        <path id="Path_125" data-name="Path 125" d="M3484.865,1780.1c24.946,22.777,14.1,45.554-4.338,87.853s-21.692,198.482-21.692,198.482l15.185-2.17s-2.169-160.52,18.438-203.905,29.283-65.075,47.721-50.975S3484.865,1780.1,3484.865,1780.1Z" transform="translate(-3310.604 -1680.223)" fill="#74b570"/>
        <path id="Path_126" data-name="Path 126" d="M3472.688,1736.721c3.029-13.5,21.02-28.1,45.078-40.492-3.577,19.909-15.047,52.459-3.176,59.135,16.008,9,1.559-36.443,7.736-61.424a297.244,297.244,0,0,1,74.793-24.533c-.036.094-.062.18-.1.273-14.1,35.792-32.537,49.892-24.943,55.315,5.711,4.08,24.313-37.265,48.882-58.458,18.44-.983,34.039,1.517,43.27,8.824,14.263,11.293,23.839,21.311,9.492,55.7a64.461,64.461,0,0,1-31.148,11.289c-32.538,3.254-47.723,4.339-24.944,15.185,11.153,5.312,29.848-.3,45.005-3.719-4.917,9.062-10.961,19.317-18.3,31a115.242,115.242,0,0,1-15.246,19.4c-10.487,2.008-19.628,2.031-24.471-.043-15.182-6.507-54.229-27.115-63.991-18.439-9.554,8.493,72.313,13.871,66.639,35.452-39.681,22.862-85.088,11.983-93.114-9.009C3503.369,1783.984,3463.567,1777.349,3472.688,1736.721Z" transform="translate(-3312.133 -1666.333)" fill="#9cd499"/>
        <path id="Path_127" data-name="Path 127" d="M3549.245,1920.245c-43.386-32.538-87.854-2.17-110.629,32.538s-6.509,112.8-6.509,112.8,8.677,0,8.677-3.254-23.863-92.19,32.539-132.321c35.282-25.105,60.735-13.016,63.991-1.085s-14.1,33.623-14.1,33.623Z" transform="translate(-3306.654 -1695.64)" fill="#74b570"/>
        <path id="Path_128" data-name="Path 128" d="M3452.39,1845.989c43.382,0,57.485,67.244,45.552,106.291s-28.2,111.713-28.2,111.713l-10.846-10.847s41.217-101.953,31.453-147.505-33.621-53.146-37.959-53.146S3452.39,1845.989,3452.39,1845.989Z" transform="translate(-3309.584 -1688.268)" fill="#9cd499"/>
        <path id="Path_129" data-name="Path 129" d="M3492.59,1966.07a31.43,31.43,0,0,1,11.422-9.6,85.678,85.678,0,0,1-2.255,9.295c-5.435,17.789-11.77,42.558-17.059,64.252-.482-2.778-1.221-7.057-2.367-13.665-.269-1.56-.479-3.254-.628-5.047A419.669,419.669,0,0,0,3492.59,1966.07Z" transform="translate(-3313.396 -1701.758)" fill="#74b570"/>
        <path id="Path_130" data-name="Path 130" d="M3504.5,1959.273c82.429-34.706,39-82.334,111.669-50.88,5.12,2.215,11.358,7.8,17.6,15.506a54.137,54.137,0,0,1-23.025,1.848c-21.693-3.253-14.1,14.1,21.693,18.438a80.342,80.342,0,0,1,16.771,3.538c17.049,32.75,24.734,75.843-11.351,90.822-7.109,2.95-15.9,4.639-25.681,5.27-11.135-8.85,2.716-60.062-14.447-52.992-16.482,6.786,5.163,43.9,2.2,53.25a237.653,237.653,0,0,1-51.492-7.217c-6.811-3.816-12.013-8.936-13.613-15.666-5.424-22.777,30.367-36.876,31.452-56.4,1-17.947-13.117,39.487-50.515,47.937C3481.944,1996.934,3465.966,1975.5,3504.5,1959.273Z" transform="translate(-3313.441 -1694.633)" fill="#9cd499"/>
        <path id="Path_131" data-name="Path 131" d="M3422.313,1886.943c8.676-18.438-14.1-22.775-13.015-8.677.958,12.494,1.066,42.864-11.748,51.133-22.1-2.393-52.162-11.3-74.895-24.873a9.213,9.213,0,0,1,.957-5.653c9.762-19.523,72.668-35.791,53.146-42.3-15.547-5.182-42.792,25.41-64.747,40.819-13.187-10-22.022-21.929-22.022-35.243,0-18.02,21.895-38.415,50.209-48.165,12.741,1.284,24.58,8.252,43.067,18.728,27.313,15.478,20.995-9.544-4.829-24.4,22.293,1.154,44.52,10.679,60.914,33.434,0,0-1.552,9.727,8.742,24.771,28.084,41.046-4.325,65.006-43.068,63.45C3407.216,1919.151,3416.317,1899.684,3422.313,1886.943Z" transform="translate(-3289.99 -1683.667)" fill="#9cd499"/>
        <path id="Path_132" data-name="Path 132" d="M3562,1920.043c21.21,16.389,44.771,35.552,73.7,48.567s23.138,55.438,23.138,55.438,4.339-36.637-19.764-49.171-40.012-27.478-58.332-30.371a265.1,265.1,0,0,1-28.442-5.785s5.785-11.569,2.412-15.907S3562,1920.043,3562,1920.043Z" transform="translate(-3322.016 -1697.276)" fill="#74b570"/>
        <path id="Path_133" data-name="Path 133" d="M3660.779,1700.848c-77.614,20.729-134.5,70.383-145.1,82.434s-10.606,15.425-10.606,15.425l8.2,15.427,3.857-1.928s-6.268-13.016,10.123-29.888c28.266-29.1,62.668-52.062,86.291-62.185S3660.779,1700.848,3660.779,1700.848Z" transform="translate(-3316.251 -1670.546)" fill="#74b570"/>
        <path id="Rectangle_56" data-name="Rectangle 56" d="M43.487,0H62.519a43.488,43.488,0,0,1,43.488,43.488v62.819a0,0,0,0,1,0,0H0a0,0,0,0,1,0,0V43.487A43.487,43.487,0,0,1,43.487,0Z" transform="translate(198.121 459.905) rotate(180)" fill="#53c4af"/>
        <rect id="Rectangle_57" data-name="Rectangle 57" width="106.008" height="7.462" transform="translate(92.113 365.776)" fill="#fff"/>
        <rect id="Rectangle_58" data-name="Rectangle 58" width="106.008" height="4.39" transform="translate(92.113 379.384)" fill="#fff"/>
      </g>
      <g id="Group_83" data-name="Group 83" transform="translate(28.188 88.028)">
        <g id="Group_70" data-name="Group 70" transform="translate(1186.518)">
          <path id="Path_134" data-name="Path 134" d="M1965.113,428.169A146.625,146.625,0,0,0,1820.4,281.556c-80.465-1.03-147.244,63.769-148.52,144.231a146.119,146.119,0,0,0,38.789,101.749,66.508,66.508,0,0,1,17.618,45.09v65.727a77.539,77.539,0,0,0,77.312,77.313h25.776a77.54,77.54,0,0,0,77.312-77.313v-65.72a67.207,67.207,0,0,1,17.885-45.389A146.09,146.09,0,0,0,1965.113,428.169Z" transform="translate(-1671.863 -281.544)" fill="#f5dc95"/>
          <path id="Path_135" data-name="Path 135" d="M1947.478,442.227A126.141,126.141,0,0,0,1822.983,316.1c-69.224-.887-126.674,54.86-127.772,124.081a125.7,125.7,0,0,0,33.371,87.535,57.223,57.223,0,0,1,15.156,38.791v56.545a66.708,66.708,0,0,0,66.512,66.513h22.174a66.708,66.708,0,0,0,66.512-66.513v-56.54a57.824,57.824,0,0,1,15.387-39.049A125.673,125.673,0,0,0,1947.478,442.227Z" transform="translate(-1674.711 -285.761)" fill="#fff" opacity="0.5"/>
          <g id="Group_68" data-name="Group 68" transform="translate(62.801 185.09)">
            <path id="Path_136" data-name="Path 136" d="M1848.893,624.728h-48.284a4.39,4.39,0,0,1-4.371-3.989c-.086-.939-9.1-94.15-50.778-120.252a4.39,4.39,0,1,1,4.658-7.441c40.659,25.463,52.212,104,54.435,122.9h39.7a143.9,143.9,0,0,1,3.952-35.2c5-21.651,17.242-54.31,47.225-86.953a4.39,4.39,0,0,1,6.467,5.938c-54.8,59.661-48.707,119.509-48.64,120.107a4.391,4.391,0,0,1-4.362,4.886Z" transform="translate(-1743.398 -492.375)" fill="#fdb994"/>
          </g>
          <g id="Group_69" data-name="Group 69" transform="translate(57.378 140.137)">
            <path id="Path_137" data-name="Path 137" d="M1884.284,500.239c-16.3,0-38.524-11.581-61.933-24.135-30.231,16.1-58.465,30.54-74.27,20.959-7.428-4.5-10.978-13.314-10.857-26.942.114-12.828,3.792-21.475,10.932-25.7,15.833-9.376,44.127,5.58,74.209,21.728,30.679-16.361,59.566-31.6,75.345-21.989,7.084,4.312,10.592,13.08,10.425,26.058-.175,13.5-4.055,22.588-11.539,27A23.826,23.826,0,0,1,1884.284,500.239Zm-52.6-29.1c24.1,12.811,49.325,25.077,60.458,18.517,4.658-2.745,7.086-9.322,7.217-19.548.125-9.655-1.964-15.861-6.211-18.447C1882.384,445.106,1856.246,458.1,1831.68,471.135Zm-71.664-20.876a14.341,14.341,0,0,0-7.388,1.715c-4.312,2.552-6.542,8.684-6.626,18.226-.091,10.122,2.139,16.634,6.627,19.355,10.829,6.565,36.133-5.637,60.4-18.446C1793.413,460.641,1772.819,450.259,1760.017,450.259Z" transform="translate(-1737.221 -441.171)" fill="#fdb994"/>
          </g>
          <rect id="Rectangle_59" data-name="Rectangle 59" width="64.087" height="38.628" rx="19.314" transform="translate(116.062 416.352)" fill="#fdb994"/>
          <path id="Path_138" data-name="Path 138" d="M1731.28,634.135v46.491a81.2,81.2,0,0,0,80.967,80.965h26.993a81.2,81.2,0,0,0,80.966-80.965V634.135Z" transform="translate(-1679.116 -324.594)" fill="#fdb994"/>
          <rect id="Rectangle_60" data-name="Rectangle 60" width="206.015" height="22.24" rx="11.12" transform="translate(44.805 301.932)" fill="#ffcaad"/>
          <path id="Path_139" data-name="Path 139" d="M1919.132,666.712l-183.551,22.673a10.567,10.567,0,0,1-11.746-9.164l-.144-1.162a10.566,10.566,0,0,1,9.165-11.747l183.55-22.674a10.566,10.566,0,0,1,11.746,9.165l.145,1.161A10.568,10.568,0,0,1,1919.132,666.712Z" transform="translate(-1678.181 -325.867)" fill="#ffcaad"/>
          <path id="Path_140" data-name="Path 140" d="M1919.132,703.3l-183.551,22.673a10.565,10.565,0,0,1-11.746-9.164l-.144-1.161a10.565,10.565,0,0,1,9.165-11.747l183.55-22.673a10.565,10.565,0,0,1,11.746,9.165l.145,1.161A10.567,10.567,0,0,1,1919.132,703.3Z" transform="translate(-1678.181 -330.335)" fill="#ffcaad"/>
          <path id="Path_141" data-name="Path 141" d="M1910.6,742.462,1757.73,761.346a9.7,9.7,0,0,1-10.781-8.41l-.357-2.881A9.7,9.7,0,0,1,1755,739.273l152.87-18.883a9.7,9.7,0,0,1,10.782,8.41l.355,2.881A9.7,9.7,0,0,1,1910.6,742.462Z" transform="translate(-1680.978 -335.117)" fill="#ffcaad"/>
        </g>
        <g id="Group_72" data-name="Group 72" transform="translate(2641.172 336.693)">
          <path id="Path_142" data-name="Path 142" d="M3427.361,779.312h98.531c0,54.053-44.479,98.533-98.531,98.533s-98.535-44.48-98.535-98.533,44.478-98.533,98.535-98.533Z" transform="translate(-3328.826 -666.983)" fill="#ffcaad"/>
          <g id="Group_71" data-name="Group 71" transform="translate(16.502)">
            <path id="Path_143" data-name="Path 143" d="M3558.391,763.6a98.532,98.532,0,0,0-98.533-98.532V763.6Z" transform="translate(-3361.326 -665.064)" fill="#f39892"/>
            <path id="Path_144" data-name="Path 144" d="M3347.624,777.3a98.532,98.532,0,0,0,98.531,98.533C3392.1,875.833,3347.624,831.354,3347.624,777.3Z" transform="translate(-3347.624 -678.768)" fill="#f39892"/>
            <path id="Path_145" data-name="Path 145" d="M3446.155,665.064a98.532,98.532,0,0,0-98.531,98.532C3347.624,709.543,3392.1,665.064,3446.155,665.064Z" transform="translate(-3347.624 -665.064)" fill="#f39892"/>
            <path id="Path_146" data-name="Path 146" d="M3459.859,875.833a98.532,98.532,0,0,0,98.533-98.533C3558.391,831.354,3513.912,875.833,3459.859,875.833Z" transform="translate(-3361.326 -678.768)" fill="#f39892"/>
          </g>
        </g>
        <g id="Group_73" data-name="Group 73" transform="translate(811.289 300.423)">
          <rect id="Rectangle_61" data-name="Rectangle 61" width="21.52" height="62.268" transform="translate(0 83.423)" fill="#ffcaad"/>
          <rect id="Rectangle_62" data-name="Rectangle 62" width="21.52" height="42.011" transform="translate(275.833 103.68)" fill="#ffcaad"/>
          <rect id="Rectangle_63" data-name="Rectangle 63" width="21.52" height="145.691" transform="translate(91.202)" fill="#ffcaad"/>
          <rect id="Rectangle_64" data-name="Rectangle 64" width="21.52" height="65.485" transform="translate(136.803 80.206)" fill="#ffcaad"/>
          <rect id="Rectangle_65" data-name="Rectangle 65" width="21.52" height="84.022" transform="translate(182.403 61.669)" fill="#ffcaad"/>
          <rect id="Rectangle_66" data-name="Rectangle 66" width="21.52" height="103.38" transform="translate(45.601 42.31)" fill="#ffcaad"/>
          <rect id="Rectangle_67" data-name="Rectangle 67" width="21.52" height="127.33" transform="translate(228.157 18.361)" fill="#ffcaad"/>
        </g>
        <g id="Group_75" data-name="Group 75" transform="translate(0 71.675)">
          <g id="Group_74" data-name="Group 74" clip-path="url(#clip-path)">
            <path id="Path_147" data-name="Path 147" d="M572.583,574.438,459.725,505.424,439.31,636.129A132.436,132.436,0,0,0,572.583,574.438Z" transform="translate(-334.854 -380.554)" fill="#a7e0d3"/>
            <path id="Path_148" data-name="Path 148" d="M575.541,565.587c.3-.5.7-1.183.686-1.157a132.3,132.3,0,0,0,2.93-130.224C539.218,455.13,563,442.418,462.564,496.729,575.608,565.857,558.052,555.2,575.541,565.587Z" transform="translate(-337.694 -371.859)" fill="#9cd499"/>
            <path id="Path_149" data-name="Path 149" d="M321.248,441.332,445.31,487.046l116.379-62.931C507.251,323.44,360.718,335.514,321.248,441.332Z" transform="translate(-320.439 -362.176)" fill="#ffcaad"/>
            <path id="Path_150" data-name="Path 150" d="M423.738,629.771l20.415-130.7L320.091,453.353C290.59,532.445,342.952,617.036,423.738,629.771Z" transform="translate(-319.283 -374.197)" fill="#f39892"/>
            <path id="Path_151" data-name="Path 151" d="M311.667,469.291a12.724,12.724,0,0,1,6.27,1.622,126.482,126.482,0,0,1,4.5-17.6l67.364,24.822c0-.021,0-.041-.005-.062a11.968,11.968,0,0,1,2.928-8.217l-6.745-2.486-60.476-22.285a129.607,129.607,0,0,1,19.484-32.768,13.107,13.107,0,0,1-6.725-5.647,138.559,138.559,0,0,0-20.993,35.381l-.073-.026-1.527,4.1-1.54,4.13.073.027a135.4,135.4,0,0,0-4.936,19.264A12.186,12.186,0,0,1,311.667,469.291Z" transform="translate(-318.977 -368.497)" fill="#fff"/>
            <path id="Path_152" data-name="Path 152" d="M565.809,425.317l.073-.04-2.088-3.861c-.042-.079-.088-.154-.131-.232l-1.706-3.177-.066.034a135.074,135.074,0,0,0-54.529-52.894,138.773,138.773,0,0,0-151.595,16.546,13.563,13.563,0,0,1,5.579,6.8,128.2,128.2,0,0,1,73.9-29.5c48.963-3.4,94.031,20.564,118.672,62.769l-34.371,18.586c-7.1,3.818-17.017,9.187-33.625,18.173-10.64,5.757-24.029,13-41.177,22.275l-1.06.573-3.456-2.114-.189,1.205-24.206-8.919a12.1,12.1,0,0,1-3.236,8.163l26.06,9.6L419.492,612.044A128.726,128.726,0,0,1,315.639,487.916a12.564,12.564,0,0,1-4.267.781,12.8,12.8,0,0,1-4.511-.823A137.482,137.482,0,0,0,418.137,620.718l-.012.076,4.324.682,4.347.685.012-.075a136.8,136.8,0,0,0,131.12-60.854l.089.052.86-1.407c.022.01,1.4-2.3,1.4-2.3.215-.351.472-.788.619-1.038l.092-.154.068-.12,1.392-2.274-.063-.038A137.213,137.213,0,0,0,565.809,425.317Zm-137.646,188.1,18.711-119.8,48.694,29.781C515.2,535.4,526.431,542.271,533.5,546.584l16.81,10.279A127.39,127.39,0,0,1,428.164,613.413Zm126.81-64.151-.837-.491c-4.611-2.731-6.614-3.918-15.8-9.522l-85.984-52.58,71.378-38.6c10.481-5.64,14.778-7.886,25.423-13.452,2.6-1.36,5.579-2.917,9.118-4.77A128.414,128.414,0,0,1,554.974,549.262Z" transform="translate(-318.683 -361.565)" fill="#d4f4ed"/>
          </g>
        </g>
        <g id="Group_77" data-name="Group 77" transform="translate(477.466 49.777)">
          <path id="Rectangle_68" data-name="Rectangle 68" d="M8.169,0H370.12a8.17,8.17,0,0,1,8.17,8.17V162.788a8.17,8.17,0,0,1-8.17,8.17H8.17A8.17,8.17,0,0,1,0,162.788V8.169A8.169,8.169,0,0,1,8.169,0Z" fill="#ffcaad"/>
          <rect id="Rectangle_69" data-name="Rectangle 69" width="357.605" height="118.019" rx="6.6" transform="translate(10.343 44.915)" fill="#fff"/>
          <g id="Group_76" data-name="Group 76" transform="translate(15.595 12.581)">
            <path id="Rectangle_70" data-name="Rectangle 70" d="M3.657,0h7.5A3.658,3.658,0,0,1,14.82,3.658V9.68a3.657,3.657,0,0,1-3.657,3.657h-7.5A3.658,3.658,0,0,1,0,9.68V3.657A3.657,3.657,0,0,1,3.657,0Z" fill="#fff"/>
            <path id="Rectangle_71" data-name="Rectangle 71" d="M3.657,0h7.5A3.658,3.658,0,0,1,14.82,3.658V9.68a3.657,3.657,0,0,1-3.657,3.657H3.657A3.657,3.657,0,0,1,0,9.68V3.657A3.657,3.657,0,0,1,3.657,0Z" transform="translate(26.945)" fill="#fff"/>
            <path id="Rectangle_72" data-name="Rectangle 72" d="M3.657,0h7.505A3.657,3.657,0,0,1,14.82,3.657V9.68a3.657,3.657,0,0,1-3.657,3.657h-7.5A3.658,3.658,0,0,1,0,9.68V3.657A3.657,3.657,0,0,1,3.657,0Z" transform="translate(53.89)" fill="#fff"/>
          </g>
          <path id="Path_154" data-name="Path 154" d="M1239.65,417.3H1050.495a5.658,5.658,0,1,1,0-11.317H1239.65a5.658,5.658,0,0,1,0,11.317Z" transform="translate(-886.252 -346.514)" fill="#ffcaad"/>
          <path id="Path_155" data-name="Path 155" d="M1077.593,516.741H888.439a5.659,5.659,0,0,1,0-11.317h189.154a5.659,5.659,0,0,1,0,11.317Z" transform="translate(-866.466 -358.656)" fill="#ffcaad"/>
          <rect id="Rectangle_73" data-name="Rectangle 73" width="23.442" height="11.317" rx="2.204" transform="translate(224.465 146.768)" fill="#ffcaad"/>
          <rect id="Rectangle_74" data-name="Rectangle 74" width="23.442" height="11.317" rx="2.204" transform="translate(253.97 146.768)" fill="#ffcaad"/>
          <path id="Path_156" data-name="Path 156" d="M1224.717,445.887H911.48a3.84,3.84,0,0,1,0-7.68h313.236a3.84,3.84,0,1,1,0,7.68Z" transform="translate(-869.502 -350.449)" fill="#ffcaad"/>
          <path id="Path_157" data-name="Path 157" d="M1224.717,464.763H911.48a3.84,3.84,0,0,1,0-7.68h313.236a3.84,3.84,0,1,1,0,7.68Z" transform="translate(-869.502 -352.754)" fill="#ffcaad"/>
        </g>
        <g id="Group_78" data-name="Group 78" transform="translate(1616.138 17.726)">
          <path id="Path_158" data-name="Path 158" d="M2322.768,395.886H2161.233v-94.15h121.482c15.642,15.641,24.412,24.41,40.053,40.052Z" transform="translate(-2161.233 -301.736)" fill="#ffb8b3"/>
          <path id="Path_159" data-name="Path 159" d="M2296.234,301.736v50.255h43.013v-9.657l-40.323-40.325Z" transform="translate(-2177.716 -301.736)" fill="#f39892"/>
          <path id="Path_160" data-name="Path 160" d="M2299.611,301.736v40.6h40.053Z" transform="translate(-2178.127 -301.736)" fill="#ffb8b3"/>
          <path id="Path_161" data-name="Path 161" d="M2253.573,341.186h-71.988a2.853,2.853,0,0,1,0-5.707h71.988a2.853,2.853,0,1,1,0,5.707Z" transform="translate(-2163.37 -305.856)" fill="#fff"/>
          <path id="Path_162" data-name="Path 162" d="M2253.573,357.814h-71.988a2.853,2.853,0,0,1,0-5.706h71.988a2.853,2.853,0,1,1,0,5.706Z" transform="translate(-2163.37 -307.886)" fill="#fff"/>
          <path id="Path_163" data-name="Path 163" d="M2253.573,375.314h-71.988a2.853,2.853,0,0,1,0-5.706h71.988a2.853,2.853,0,1,1,0,5.706Z" transform="translate(-2163.37 -310.023)" fill="#fff"/>
        </g>
        <circle id="Ellipse_19" data-name="Ellipse 19" cx="4.828" cy="4.828" r="4.828" transform="translate(1687.249 20.135)" fill="#2a6456"/>
        <rect id="Rectangle_75" data-name="Rectangle 75" width="102.666" height="123.788" transform="translate(982.285 2.854) rotate(10.935)" fill="#fae8b6"/>
        <path id="Path_164" data-name="Path 164" d="M1522.023,364.668l-53.442-10.325a2.634,2.634,0,1,1,1-5.172l53.442,10.326a2.633,2.633,0,0,1-1,5.171Z" transform="translate(-460.264 -289.795)" fill="#ffcaad"/>
        <path id="Path_165" data-name="Path 165" d="M1519.08,379.887l-53.441-10.326a2.634,2.634,0,0,1,1-5.172l53.441,10.326a2.634,2.634,0,0,1-1,5.172Z" transform="translate(-459.904 -291.653)" fill="#ffcaad"/>
        <path id="Path_166" data-name="Path 166" d="M1516.061,395.524,1462.619,385.2a2.634,2.634,0,1,1,1-5.172l53.442,10.326a2.634,2.634,0,0,1-1,5.172Z" transform="translate(-459.536 -293.563)" fill="#ffcaad"/>
        <path id="Path_167" data-name="Path 167" d="M1487.333,302.634a4.389,4.389,0,1,1-3.477-5.142A4.389,4.389,0,0,1,1487.333,302.634Z" transform="translate(-461.752 -283.481)" fill="#2a6456"/>
        <path id="Path_168" data-name="Path 168" d="M2408.458,543.146l-156-16.434,10.3-97.784,123.691,13.03c11.287,13.947,17.616,21.768,28.906,35.714Z" transform="translate(-556.233 -299.539)" fill="#ffcaad"/>
        <path id="Path_169" data-name="Path 169" d="M2385.206,450.017l-116.121-12.232-8.689,82.5L2404.757,535.5l5.089-48.31-28.242-2.975Z" transform="translate(-557.203 -300.621)" fill="#fff"/>
        <path id="Path_170" data-name="Path 170" d="M2373.779,483.883l-75.221-7.923a3.151,3.151,0,0,1,.663-6.267l75.217,7.924a3.151,3.151,0,1,1-.659,6.267Z" transform="translate(-561.518 -304.514)" fill="#ffcaad"/>
        <path id="Path_171" data-name="Path 171" d="M2371.79,502.766l-75.218-7.924a3.151,3.151,0,1,1,.659-6.267l75.221,7.923a3.152,3.152,0,0,1-.662,6.268Z" transform="translate(-561.274 -306.82)" fill="#ffcaad"/>
        <path id="Path_172" data-name="Path 172" d="M2369.712,522.479l-75.217-7.924a3.151,3.151,0,1,1,.658-6.267l75.22,7.924a3.151,3.151,0,1,1-.661,6.267Z" transform="translate(-561.021 -309.227)" fill="#ffcaad"/>
        <circle id="Ellipse_20" data-name="Ellipse 20" cx="4.828" cy="4.828" r="4.828" transform="translate(1760.071 147.139)" fill="#2a6456"/>
        <g id="Group_81" data-name="Group 81" transform="translate(132.31 435.78)">
          <rect id="Rectangle_76" data-name="Rectangle 76" width="339.456" height="139.882" rx="16.483" transform="translate(339.456 139.882) rotate(180)" fill="#ffcaad"/>
          <path id="Path_175" data-name="Path 175" d="M798.634,911.594v77.176L709.7,899.838S796.825,911.594,798.634,911.594Z" transform="translate(-500.178 -792.816)" fill="#ffcaad"/>
          <rect id="Rectangle_77" data-name="Rectangle 77" width="304.339" height="112.147" rx="13.975" transform="translate(321.897 126.015) rotate(180)" fill="#fff"/>
          <path id="Path_176" data-name="Path 176" d="M648.08,823.644H785.551a6.03,6.03,0,0,0,0-12.06H648.08a6.03,6.03,0,0,0,0,12.06Z" transform="translate(-491.919 -782.041)" fill="#ffcaad"/>
          <rect id="Rectangle_78" data-name="Rectangle 78" width="261.676" height="6.773" rx="3.387" transform="translate(299.661 64.656) rotate(180)" fill="#ffcaad"/>
          <rect id="Rectangle_79" data-name="Rectangle 79" width="261.676" height="6.773" rx="3.387" transform="translate(299.661 77.779) rotate(180)" fill="#ffcaad"/>
        </g>
        <g id="Group_82" data-name="Group 82" transform="translate(2332.695 452.081)">
          <rect id="Rectangle_80" data-name="Rectangle 80" width="28.719" height="25.848" rx="7.088" transform="translate(133.154 25.848) rotate(180)" fill="#ffcaad"/>
          <path id="Rectangle_81" data-name="Rectangle 81" d="M7.088,0H21.632A7.088,7.088,0,0,1,28.72,7.088V18.759a7.088,7.088,0,0,1-7.088,7.088H7.089A7.089,7.089,0,0,1,0,18.759V7.088A7.088,7.088,0,0,1,7.088,0Z" transform="translate(80.937 25.848) rotate(180)" fill="#ffcaad"/>
          <rect id="Rectangle_82" data-name="Rectangle 82" width="28.72" height="25.848" rx="7.088" transform="translate(28.72 25.848) rotate(180)" fill="#ffcaad"/>
        </g>
      </g>
    </g>
  </g>
</svg>
