<svg xmlns="http://www.w3.org/2000/svg" width="37.948" height="30.876" viewBox="0 0 37.948 30.876">
  <path id="Path_184" data-name="Path 184" d="M3880.117,3861.533c-2.1,6.212.347,7.34,2.225,10.018l-3.047-.729a7.229,7.229,0,0,0,5.212,7.2c-.737.607-1.885.544-2.361.727,1.23,3.88,4.048,4.846,6.667,5.5-2.888,2.4-6.321,2.771-10.787,3.015,11.274,6.875,25.429,3.159,31.52-8.2,3.457-6.439,2-10.351,3.085-11.818.881-1.2,2.194-1.457,3.342-3.568l-3.744.821a8.933,8.933,0,0,0,2.763-3.859c-2.144.616-3.851,2.269-5.711.941a7.613,7.613,0,0,0-6.183-1.642c-5.15.7-6.622,4.74-6.568,9.345-10.423.379-14.545-5.957-16.415-7.749" transform="translate(-3878.027 -3859.838)" fill="#fff" fill-rule="evenodd"/>
</svg>
