<svg xmlns="http://www.w3.org/2000/svg" width="35.158" height="25.638" viewBox="0 0 35.158 25.638">
  <path id="Path_185" data-name="Path 185" d="M3916.165,3878.058c.457,5.995,1.042,7.543,7.187,7.908,4.822.279,9.941.3,14.877.218,11.486-.2,13.634.867,12.739-17.3-.3-5.978-1.133-7.794-7.077-8.083-5.015-.241-10.164-.25-15.186-.159-5.673.1-10.366-.51-11.8,3.5-1.093,3.038-1.006,10.321-.736,13.914m13.862-9.905c1.3.336,8.075,3.823,8.926,4.967-1.116.907-7.442,4.369-8.961,4.7Z" transform="translate(-3915.991 -3860.59)" fill="#fff" fill-rule="evenodd"/>
</svg>
