<svg xmlns="http://www.w3.org/2000/svg" width="31.592" height="31.812" viewBox="0 0 31.592 31.812">
  <path id="Path_187" data-name="Path 187" d="M3965.1,3867.485c-10.73,3.183-5.7,18.709,4.449,15.785,10.255-2.962,6.047-18.9-4.449-15.785m.951,2.606c7.193-1.952,9.2,9.092,2.6,10.559C3961.643,3882.208,3958.84,3872.052,3966.056,3870.091Zm16.4,17.333c.98-2.726.418-19.4.135-23.954-.765-2.342-2.443-3.983-8.149-3.966-4.231.014-8.468.006-12.705.006-11.653-.015-10.177,4.374-10.177,15.245,0,8.932-1.966,16.486,8.757,16.458,3.167-.006,16.024.441,18.427-.486A6.8,6.8,0,0,0,3982.452,3887.424Zm-28.11-16.9c.015-10.049-.415-8.226,21.153-8.226,3.3,0,4.816,1.442,4.823,4.694l-.007,16.589c0,3.637-1.748,4.852-5.173,4.852h-15.874c-3.713,0-4.923-1.578-4.923-5.21Zm21.958-6.061a2.165,2.165,0,1,1-2.173,2.167A2.171,2.171,0,0,1,3976.3,3864.463Z" transform="translate(-3951.415 -3859.504)" fill="#fff" fill-rule="evenodd"/>
</svg>
