<svg xmlns="http://www.w3.org/2000/svg" width="30.963" height="30.921" viewBox="0 0 30.963 30.921">
  <path id="Path_188" data-name="Path 188" d="M4013.8,3874.942c.515.814.313,11.165.313,11.194-.231.048-4.5.033-4.612-.005l-.017-8.164c.091-2.493-1.717-3.442-3.622-2.682-2.582,1.033-1.1,7.966-1.519,10.846H3999.8l-.014-14.721c.182-.038,4.13-.043,4.38,0v2a5.28,5.28,0,0,1,5.5-2.317,4.52,4.52,0,0,1,3.258,1.717,5.177,5.177,0,0,1,.874,2.128m4.867-10.063c0-1.437.231-3.365-.492-4.239-.807-.973-1.808-.836-3-.836h-24.966c-2.453,0-2.47,1.84-2.47,3.3v24.943c0,2.293,1.186,2.674,3.091,2.674h24.938c2.11,0,2.9-.723,2.9-2.865Zm-24.4-.806a2.661,2.661,0,0,1,2.562,4.154c-2.217,3.192-6.761-.7-4.058-3.394A2.658,2.658,0,0,1,3994.26,3864.073Zm2.623,7.346.021,14.711c-.12.038-4.328.053-4.579.005l.008-14.75c.257-.035,3.561,0,4.277,0C3996.813,3871.381,3996.813,3871.357,3996.883,3871.419Z" transform="translate(-3987.736 -3859.798)" fill="#fff" fill-rule="evenodd"/>
</svg>
